<?xml version="1.0" standalone="no"?>
<!DOCTYPE svg PUBLIC "-//W3C//DTD SVG 20010904//EN"
 "http://www.w3.org/TR/2001/REC-SVG-20010904/DTD/svg10.dtd">
<svg version="1.0" xmlns="http://www.w3.org/2000/svg"
 width="1024.000000pt" height="1024.000000pt" viewBox="0 0 1024.000000 1024.000000"
 preserveAspectRatio="xMidYMid meet">
<metadata>
Created by potrace 1.14, written by Peter Selinger 2001-2017
</metadata>
<g transform="translate(0.000000,1024.000000) scale(0.100000,-0.100000)"
fill="#000000" stroke="none">
<path d="M5168 10233 c6 -2 9 -10 6 -15 -4 -7 -2 -8 5 -4 13 9 5 26 -12 25 -9
0 -8 -2 1 -6z"/>
<path d="M5083 10188 c-9 -10 -23 -16 -30 -14 -10 4 -11 1 -4 -13 7 -13 6 -18
-4 -18 -8 0 -12 5 -8 10 3 5 -4 4 -14 -2 -11 -6 -24 -7 -28 -3 -5 4 -5 1 -1
-6 4 -7 12 -9 18 -6 7 5 8 2 3 -6 -5 -9 -1 -10 16 -6 21 6 22 5 6 -4 -14 -9
-23 -8 -41 4 -22 14 -24 14 -19 -4 7 -25 0 -25 -23 -2 -15 15 -17 15 -12 1 4
-9 1 -22 -5 -29 -9 -10 -7 -11 13 -6 21 6 22 5 7 -4 -22 -14 -38 -5 -30 18 5
14 2 13 -11 -3 -10 -11 -14 -13 -10 -5 6 13 5 13 -7 1 -11 -10 -11 -15 -1 -18
6 -3 12 -8 12 -13 0 -10 -27 -7 -37 5 -4 4 -2 5 4 1 9 -5 11 -2 7 8 -5 12 -9
13 -19 3 -7 -7 -9 -14 -5 -17 10 -7 9 -40 -2 -34 -5 3 -5 10 -2 16 4 6 1 8 -7
6 -8 -3 -13 -10 -12 -16 2 -6 -3 -9 -11 -6 -8 3 -17 0 -21 -5 -3 -6 -11 -8
-17 -5 -18 11 -58 13 -58 3 0 -5 10 -8 21 -6 12 1 24 -5 26 -13 4 -13 3 -13
-6 0 -5 8 -14 11 -18 6 -8 -7 -9 -11 -12 -38 -1 -9 -4 -8 -11 2 -5 8 -10 11
-10 7 0 -4 -9 -3 -19 3 -14 7 -22 7 -26 0 -4 -6 -16 -8 -28 -4 -20 6 -20 6 -4
-10 20 -21 21 -27 5 -24 -7 2 -12 -2 -11 -9 2 -8 -4 -10 -14 -6 -12 5 -15 2
-11 -9 4 -9 0 -15 -8 -15 -19 0 -18 4 14 34 15 15 21 23 15 19 -8 -4 -13 -2
-14 6 0 7 -4 3 -10 -10 -5 -13 -13 -20 -19 -17 -6 4 -9 1 -8 -7 2 -7 -3 -12
-10 -10 -8 1 -11 -2 -7 -8 3 -5 1 -18 -5 -27 -10 -16 -11 -16 -6 -1 2 9 -2 22
-10 29 -12 10 -13 9 -8 -6 5 -11 3 -16 -2 -12 -6 3 -16 2 -24 -3 -8 -5 -19 -6
-25 -2 -6 4 -2 -1 8 -10 25 -23 9 -23 -23 -1 -23 16 -24 16 -11 0 11 -14 11
-18 -3 -23 -9 -3 -14 -9 -11 -13 2 -4 -2 -8 -10 -8 -8 0 -11 5 -8 10 3 6 1 7
-5 3 -5 -3 -12 0 -14 6 -3 8 -10 3 -18 -12 -12 -23 -12 -24 3 -11 24 20 21 5
-5 -21 -16 -16 -20 -17 -15 -5 4 12 1 17 -9 17 -10 0 -14 -6 -11 -14 4 -10 1
-13 -8 -9 -8 3 -12 9 -9 14 3 5 -2 6 -11 3 -14 -6 -14 -7 1 -18 14 -11 14 -13
-2 -27 -10 -7 -15 -9 -11 -2 10 17 -12 28 -26 13 -7 -8 -8 -10 -1 -7 6 3 11 0
11 -8 0 -12 -4 -12 -20 2 -11 10 -17 12 -12 4 6 -10 2 -12 -14 -6 -13 4 -21 2
-21 -5 0 -6 5 -8 13 -4 8 5 8 3 -2 -9 -7 -9 -18 -14 -23 -11 -6 4 -8 -3 -3
-17 5 -19 4 -21 -4 -9 -6 8 -11 11 -11 6 0 -5 -8 -2 -17 5 -11 10 -14 10 -9 2
4 -8 2 -13 -4 -13 -6 0 -9 -4 -5 -9 3 -5 0 -13 -6 -17 -7 -4 -9 -3 -6 3 4 6 0
16 -8 23 -13 11 -14 10 -9 -3 5 -13 -1 -15 -31 -12 -33 3 -35 2 -18 -11 17
-13 17 -14 -2 -7 -18 6 -19 5 -5 -13 14 -18 13 -18 -9 1 -14 11 -21 14 -17 7
6 -9 1 -11 -18 -8 -16 3 -24 1 -20 -5 3 -5 -10 -16 -30 -24 -27 -11 -34 -19
-29 -33 5 -15 4 -14 -9 2 -14 17 -15 17 -21 2 -4 -11 -3 -15 4 -10 8 4 8 0 0
-14 -6 -12 -17 -24 -24 -28 -8 -5 -7 -2 2 10 11 12 11 19 3 27 -7 5 -10 6 -7
2 9 -12 -26 -42 -43 -36 -11 5 -13 3 -7 -7 5 -9 4 -11 -4 -6 -6 4 -9 12 -6 17
3 5 -1 6 -10 3 -11 -5 -13 -10 -5 -19 9 -11 7 -12 -9 -8 -13 3 -18 11 -15 21
5 14 4 14 -6 -1 -6 -9 -16 -14 -22 -11 -7 4 -8 2 -4 -4 4 -7 2 -12 -3 -12 -6
0 -11 -5 -11 -12 0 -6 8 -4 19 6 12 11 21 14 26 7 3 -6 4 -12 1 -12 -3 -1 -10
-3 -16 -4 -5 -1 -13 -3 -17 -4 -5 -1 -1 -6 7 -11 9 -6 10 -10 3 -10 -6 0 -19
10 -28 23 l-16 22 5 -27 c2 -15 0 -31 -6 -34 -6 -4 -8 -3 -5 2 3 6 2 16 -4 24
-6 12 -9 12 -9 2 0 -9 -10 -12 -27 -10 -17 2 -28 -2 -30 -12 -4 -13 -3 -13 7
0 10 13 11 12 6 -3 -3 -10 -6 -21 -6 -23 0 -2 -5 -4 -11 -4 -5 0 -7 5 -4 10 3
6 1 10 -4 10 -6 0 -11 -6 -11 -14 0 -8 -5 -18 -11 -22 -8 -4 -9 1 -4 16 5 15
4 20 -4 16 -6 -4 -11 -16 -11 -27 0 -10 -5 -19 -11 -19 -5 0 -7 6 -3 13 4 6 4
9 -1 5 -4 -4 -15 -2 -23 5 -13 10 -14 9 -4 -10 18 -33 14 -39 -9 -12 l-21 24
7 -30 c6 -30 6 -30 -8 -6 -12 20 -15 21 -20 7 -4 -10 -11 -15 -16 -12 -5 3
-14 -1 -21 -9 -7 -8 -17 -12 -23 -8 -6 3 -7 1 -3 -5 8 -13 36 -5 36 10 0 6 8
4 17 -3 14 -12 16 -12 8 0 -6 10 -4 12 4 7 15 -10 7 -19 -21 -23 -12 -2 -26
-9 -31 -16 -7 -9 -10 -9 -14 1 -4 10 -8 9 -17 -4 -15 -19 -40 -10 -32 12 10
26 -3 14 -19 -16 -9 -17 -13 -36 -9 -42 4 -7 3 -8 -5 -4 -6 4 -9 17 -6 29 2
12 2 16 -1 9 -5 -10 -9 -10 -21 0 -9 7 -7 -3 7 -27 14 -25 16 -34 7 -26 -13
10 -17 9 -26 -6 -6 -10 -11 -12 -11 -5 0 6 -7 12 -16 12 -9 0 -12 5 -8 12 4 7
-7 2 -24 -11 -18 -12 -32 -19 -32 -14 0 4 -5 0 -11 -10 -6 -9 -15 -14 -21 -11
-7 4 -8 2 -4 -4 9 -15 -31 -35 -56 -29 -15 4 -17 3 -7 -9 6 -7 16 -11 22 -7 6
3 7 1 3 -6 -5 -7 -12 -9 -19 -3 -16 12 -57 22 -55 13 2 -19 -3 -24 -12 -11 -7
11 -9 8 -7 -14 1 -16 -4 -31 -10 -33 -7 -3 -13 0 -13 7 0 6 4 8 10 5 6 -4 7 1
3 11 -5 14 -7 14 -15 1 -4 -9 -17 -14 -28 -12 -11 2 -18 0 -15 -6 4 -5 1 -9
-4 -9 -6 0 -11 6 -11 12 0 7 -7 2 -16 -10 -8 -12 -21 -19 -27 -16 -7 4 -8 3
-4 -1 11 -13 38 -15 31 -3 -5 7 -2 8 6 3 9 -6 11 -4 5 5 -5 9 -4 11 4 6 8 -6
9 -12 2 -20 -6 -7 -7 -17 -3 -21 4 -5 0 -4 -8 0 -19 12 -50 14 -50 4 0 -4 5
-9 12 -11 7 -3 5 -7 -6 -11 -9 -4 -15 -3 -13 1 3 4 -5 16 -16 27 l-20 20 12
-22 c14 -27 14 -43 0 -43 -5 0 -8 4 -5 9 3 5 -1 12 -10 15 -11 4 -15 2 -11 -8
7 -19 -13 -26 -37 -14 -14 8 -17 7 -11 -3 6 -9 3 -10 -10 -5 -15 5 -16 4 -6
-8 10 -11 10 -19 1 -33 -10 -16 -11 -16 -6 -1 3 10 1 20 -4 23 -6 4 -10 -1
-10 -10 0 -9 -5 -13 -10 -10 -6 4 -7 11 -4 17 4 7 2 8 -4 4 -8 -5 -9 -13 -2
-26 8 -15 7 -17 -12 -12 -15 3 -19 2 -14 -7 4 -6 4 -11 -1 -10 -24 4 -43 -2
-37 -13 4 -6 3 -8 -4 -5 -5 4 -9 15 -7 25 2 9 4 19 4 22 1 3 6 -2 11 -10 8
-13 11 -13 26 1 12 13 13 18 3 24 -8 6 -10 4 -4 -4 5 -9 1 -12 -13 -9 -11 2
-32 -8 -47 -22 -15 -14 -30 -25 -33 -25 -4 0 -7 -6 -9 -13 -1 -10 4 -8 18 4
10 9 19 12 19 6 0 -13 -13 -22 -40 -27 -11 -2 -18 0 -15 5 6 9 -21 7 -31 -2
-3 -4 -12 -4 -19 -2 -7 3 -15 -2 -18 -10 -4 -9 -15 -13 -27 -11 -18 4 -20 2
-10 -11 10 -11 16 -12 26 -3 10 8 14 8 14 0 0 -10 -13 -15 -32 -12 -5 0 -8 -5
-8 -13 0 -8 -4 -17 -9 -20 -5 -4 -7 4 -4 16 5 23 5 23 -12 3 -13 -16 -16 -17
-11 -3 3 12 1 15 -10 11 -17 -6 -17 -8 -3 -36 9 -19 8 -20 -3 -6 -7 9 -19 14
-27 11 -8 -3 -11 0 -7 7 4 6 2 9 -7 5 -7 -2 -14 -11 -14 -18 0 -8 6 -12 14 -9
7 3 13 -1 13 -8 0 -7 -3 -9 -7 -6 -3 4 -15 -1 -26 -10 -11 -10 -17 -13 -14 -7
4 7 -2 14 -13 17 -22 6 -28 -8 -7 -17 6 -3 -15 -4 -48 -2 -33 2 -52 1 -42 -1
9 -3 15 -9 12 -14 -3 -5 2 -6 12 -3 10 3 7 -2 -7 -10 -33 -20 -45 -20 -29 2
13 15 12 16 -4 3 -17 -13 -17 -15 0 -35 15 -17 15 -18 1 -8 -14 11 -18 10 -27
-5 -6 -10 -11 -13 -11 -6 0 7 -7 10 -17 7 -15 -5 -15 -4 -3 4 8 6 18 8 22 6 4
-3 8 0 8 6 0 8 -7 9 -17 5 -10 -4 -23 -8 -30 -8 -7 0 -11 -5 -10 -10 1 -5 -4
-12 -12 -15 -9 -3 -11 0 -6 8 5 9 4 11 -4 6 -6 -4 -9 -11 -6 -16 3 -5 1 -11
-4 -15 -6 -3 -8 -13 -5 -23 5 -14 4 -14 -4 -2 -8 10 -8 18 0 27 7 9 7 13 -1
13 -6 0 -11 -5 -11 -11 0 -5 -4 -7 -10 -4 -7 4 -7 -3 0 -22 l10 -28 -19 23
c-12 13 -22 18 -26 12 -3 -5 0 -10 7 -10 9 0 9 -3 -2 -10 -12 -8 -12 -10 -1
-10 8 0 12 -2 9 -5 -10 -10 -38 7 -31 19 4 6 -1 5 -10 -3 -15 -12 -17 -11 -18
5 0 13 -2 15 -6 5 -3 -8 2 -20 11 -26 14 -11 14 -12 -8 -12 -17 0 -23 4 -19
13 3 8 0 14 -7 14 -6 0 -9 -4 -5 -9 3 -6 -3 -15 -12 -21 -17 -11 -17 -11 0 -6
9 3 17 1 17 -4 0 -9 -24 -13 -81 -13 -9 0 -16 -6 -16 -13 0 -10 4 -11 14 -3
10 9 13 8 13 -1 0 -9 4 -9 17 1 16 12 17 12 5 -2 -7 -9 -23 -15 -37 -13 -14 1
-25 -2 -25 -7 0 -5 -5 -9 -11 -9 -5 0 -8 4 -5 8 2 4 0 14 -6 22 -8 12 -9 12
-4 -2 6 -21 -4 -23 -24 -5 -8 6 -4 -1 10 -17 24 -28 24 -28 3 -17 -13 7 -23 8
-23 2 0 -5 6 -12 13 -14 9 -4 9 -6 -1 -6 -8 -1 -10 -6 -6 -13 5 -9 2 -9 -9 1
-19 15 -23 26 -5 15 7 -4 8 -3 4 5 -11 16 -29 2 -21 -17 3 -9 3 -13 -1 -10 -3
4 -18 1 -33 -6 -28 -14 -55 -11 -45 6 4 7 2 8 -5 4 -9 -6 -9 -11 1 -24 10 -12
10 -16 0 -19 -6 -3 -9 -10 -6 -15 4 -7 2 -8 -5 -4 -9 6 -9 11 0 22 9 10 9 14
0 14 -6 0 -16 -10 -21 -22 -5 -13 -9 -18 -9 -12 -1 7 -8 15 -17 18 -8 3 -12 2
-9 -4 4 -6 -7 -8 -25 -6 -17 2 -29 2 -26 -1 7 -7 -45 -54 -54 -48 -5 3 -11 1
-14 -4 -4 -5 -1 -13 5 -17 8 -5 9 -3 4 6 -5 9 -4 11 4 6 6 -4 9 -11 6 -16 -6
-10 -32 -3 -54 14 -12 9 -12 8 -3 -10 9 -17 8 -21 -6 -21 -9 0 -20 5 -24 11
-6 8 -8 8 -8 -1 0 -6 -8 -10 -17 -8 -10 1 -12 0 -5 -2 6 -3 12 -9 12 -14 0 -6
4 -7 10 -4 6 3 7 -1 3 -10 -4 -12 -8 -13 -13 -4 -9 14 -40 5 -40 -12 0 -8 5
-7 18 2 14 11 15 11 5 -1 -16 -17 -53 -24 -53 -9 0 5 6 7 12 3 7 -4 10 -4 6 1
-4 4 -2 15 4 24 11 14 10 14 -7 0 -11 -9 -27 -14 -35 -12 -12 4 -12 3 -2 -5
11 -8 11 -10 -1 -15 -8 -3 -19 -1 -24 4 -5 5 -9 0 -10 -13 -2 -18 0 -20 7 -8
15 24 12 5 -5 -26 -9 -19 -15 -23 -15 -12 0 12 -6 16 -22 13 -12 -3 -24 -8
-27 -12 -10 -13 -31 -14 -31 0 0 9 -2 9 -9 -1 -4 -8 -11 -13 -15 -13 -19 3
-26 0 -26 -10 0 -8 4 -8 13 -2 12 11 44 9 55 -2 4 -3 -6 -4 -21 -1 -14 2 -29
0 -32 -5 -4 -5 -1 -9 5 -9 6 0 8 -5 5 -11 -5 -6 -13 -3 -22 10 -18 26 -33 19
-26 -12 5 -22 5 -22 -10 -2 -16 19 -16 19 -11 -8 4 -24 3 -26 -10 -15 -7 7
-12 17 -9 22 3 4 -6 1 -19 -8 -14 -9 -28 -13 -33 -9 -4 5 -5 2 -1 -5 5 -9 13
-9 29 -1 20 9 21 9 4 -4 -19 -15 -51 -12 -77 7 -13 10 -13 9 -1 -6 9 -12 10
-18 2 -18 -6 0 -11 -5 -11 -12 0 -9 3 -9 12 0 16 16 29 15 22 -2 -3 -8 -16
-13 -30 -11 -19 2 -24 -1 -19 -14 3 -8 3 -12 -1 -8 -4 4 -18 0 -32 -9 -13 -9
-22 -12 -18 -6 3 5 -1 13 -10 16 -21 8 -21 8 -21 -9 0 -8 4 -15 8 -15 9 0 5
-27 -6 -37 -4 -4 -6 -3 -2 2 3 6 0 20 -6 32 -11 19 -13 19 -27 5 -13 -14 -12
-15 3 -9 9 3 17 2 17 -3 0 -6 -7 -10 -16 -10 -18 0 -46 -25 -38 -33 3 -3 -2
-4 -13 -2 -10 1 -27 -5 -37 -14 -11 -9 -17 -11 -13 -6 3 6 -3 16 -14 23 -10 7
-19 9 -18 5 5 -28 -2 -33 -23 -23 -19 9 -21 9 -8 -2 8 -7 16 -20 18 -28 3 -11
-1 -10 -16 3 -14 13 -22 15 -27 7 -4 -6 -4 -14 -1 -17 3 -4 6 0 6 8 1 10 4 8
11 -4 6 -10 8 -21 5 -24 -3 -4 -6 -1 -6 5 0 6 -10 9 -22 7 -12 -3 -28 1 -37 8
-10 8 -12 8 -8 1 4 -7 0 -15 -9 -18 -9 -3 -14 -13 -11 -21 4 -9 1 -12 -8 -8
-8 3 -12 10 -9 17 3 6 -2 2 -11 -9 -9 -11 -20 -19 -25 -18 -5 2 -6 -5 -3 -15
6 -14 4 -15 -8 -5 -13 10 -16 10 -16 -2 0 -8 4 -12 9 -9 4 3 8 1 8 -5 0 -5 -6
-12 -12 -14 -9 -4 -9 -6 1 -6 11 -1 10 -5 -5 -16 -10 -8 -14 -15 -9 -14 22 3
29 -2 15 -11 -12 -8 -12 -11 3 -28 9 -10 17 -23 17 -28 0 -5 -5 -1 -11 9 -5 9
-15 17 -22 17 -7 0 -6 -4 3 -10 12 -8 13 -13 3 -29 -6 -10 -9 -22 -5 -25 10
-11 11 -60 0 -73 -6 -7 -5 -14 2 -18 7 -4 7 -12 -1 -26 -12 -22 -7 -35 10 -25
6 4 8 13 4 21 -3 8 -1 15 4 15 6 0 9 -12 8 -27 -1 -21 -6 -28 -21 -26 -17 1
-16 -1 6 -19 23 -20 23 -21 4 -16 -22 6 -24 -1 -9 -34 4 -10 12 -15 19 -12 6
3 1 -3 -12 -13 -20 -16 -21 -21 -9 -31 7 -7 17 -9 20 -5 4 3 7 1 7 -6 0 -8 -8
-11 -19 -8 -19 5 -23 -15 -6 -30 4 -4 5 -2 0 6 -5 9 -4 12 3 8 5 -4 9 -18 7
-32 -1 -14 2 -25 8 -25 6 0 2 -7 -9 -16 -13 -11 -14 -14 -3 -11 9 3 16 -1 16
-8 0 -7 -6 -11 -14 -8 -19 8 -16 -3 8 -26 21 -19 21 -20 1 -15 -29 8 -38 -14
-10 -25 16 -7 18 -10 6 -10 -14 -1 -15 -5 -7 -31 7 -18 15 -27 22 -23 7 4 6
-1 -2 -10 -15 -19 -26 -23 -15 -5 5 7 3 8 -6 3 -10 -6 -12 -4 -6 11 6 15 5 17
-5 7 -10 -10 -10 -16 -1 -25 8 -8 8 -17 1 -30 -12 -22 -6 -34 10 -24 6 4 8 13
4 21 -3 8 -1 15 4 15 6 0 9 -12 8 -27 -1 -21 -6 -28 -21 -26 -17 1 -16 -1 6
-19 23 -20 23 -21 4 -16 -22 6 -24 -1 -9 -34 4 -10 12 -15 19 -12 6 3 1 -3
-12 -13 -20 -16 -21 -21 -9 -31 7 -7 17 -9 20 -5 4 3 7 1 7 -6 0 -8 -8 -11
-19 -8 -19 5 -23 -15 -6 -30 4 -4 5 -2 0 6 -5 9 -4 12 3 8 5 -4 9 -18 7 -32
-1 -14 2 -25 8 -25 6 0 2 -7 -9 -16 -13 -11 -14 -14 -3 -11 9 3 16 -1 16 -8 0
-7 -6 -11 -14 -8 -19 8 -16 -3 8 -26 21 -19 21 -20 1 -15 -29 8 -38 -14 -10
-25 16 -7 18 -10 6 -10 -14 -1 -15 -5 -7 -31 7 -18 15 -27 22 -23 7 4 6 -1 -2
-10 -15 -19 -26 -23 -15 -5 5 7 3 8 -6 3 -10 -6 -12 -4 -6 11 6 15 5 17 -5 7
-10 -10 -10 -16 -1 -25 8 -8 8 -17 1 -30 -12 -22 -6 -34 10 -24 6 4 8 13 4 21
-3 8 -1 15 4 15 6 0 9 -12 8 -27 -1 -21 -6 -28 -21 -26 -17 1 -16 -1 6 -19 23
-20 23 -21 4 -16 -22 6 -24 -1 -9 -34 4 -10 12 -15 19 -12 6 3 1 -3 -12 -13
-20 -16 -21 -21 -9 -31 7 -7 17 -9 20 -5 4 3 7 1 7 -6 0 -8 -8 -11 -19 -8 -19
5 -23 -15 -6 -30 4 -4 5 -2 0 6 -5 9 -4 12 2 8 6 -4 10 -17 9 -29 -1 -13 3
-26 9 -30 6 -5 5 -8 -4 -8 -11 0 -11 -3 0 -17 13 -15 12 -15 -11 -3 l-25 13
20 -23 c16 -19 17 -22 3 -17 -18 7 -18 -7 1 -42 12 -21 11 -23 -2 -18 -15 6
-17 -8 -4 -30 4 -6 2 -13 -5 -15 -7 -3 -5 -7 6 -11 12 -5 15 -3 10 6 -4 6 -3
8 1 4 5 -4 10 -14 11 -22 2 -12 -2 -13 -19 -3 l-22 11 20 -23 c16 -19 17 -22
3 -17 -18 7 -18 -7 1 -42 12 -21 11 -23 -2 -18 -15 6 -17 -8 -4 -30 4 -6 2
-13 -5 -15 -7 -3 -5 -7 6 -11 12 -5 15 -3 10 6 -4 6 -3 8 1 4 5 -4 10 -14 11
-22 2 -12 -2 -13 -19 -3 l-22 11 20 -23 c16 -19 17 -22 3 -17 -18 7 -18 -7 1
-42 12 -21 11 -23 -2 -18 -15 6 -17 -8 -4 -30 4 -6 2 -13 -5 -15 -7 -3 -5 -7
6 -11 12 -5 15 -3 10 6 -4 6 -3 8 1 4 5 -4 10 -14 11 -22 2 -12 -2 -13 -19 -3
l-22 11 20 -23 c16 -19 17 -22 3 -17 -18 7 -18 -7 1 -42 12 -21 11 -23 -2 -18
-15 6 -17 -8 -4 -30 4 -6 1 -14 -5 -16 -10 -4 -10 -6 0 -6 6 -1 12 -6 12 -12
0 -5 -6 -7 -12 -3 -10 5 -10 4 -1 -6 9 -9 9 -19 2 -32 -12 -22 -6 -34 10 -24
6 4 8 13 4 21 -3 8 -1 15 4 15 6 0 9 -12 8 -27 -1 -21 -6 -28 -21 -26 -17 1
-16 -1 6 -19 23 -20 23 -21 4 -16 -22 6 -24 -1 -9 -34 4 -10 12 -15 19 -12 6
3 1 -3 -12 -13 -20 -16 -21 -21 -9 -31 7 -7 17 -9 20 -5 4 3 7 1 7 -6 0 -8 -8
-11 -19 -8 -19 5 -23 -15 -6 -30 4 -4 5 -2 0 6 -5 9 -4 12 3 8 5 -4 9 -18 7
-32 -1 -14 2 -25 8 -25 6 0 2 -7 -9 -16 -13 -11 -14 -14 -3 -11 9 3 16 -1 16
-8 0 -7 -6 -11 -14 -8 -19 8 -16 -3 8 -26 21 -19 21 -20 1 -15 -29 8 -38 -14
-10 -25 16 -7 18 -10 6 -10 -14 -1 -15 -5 -7 -31 7 -18 15 -27 22 -23 7 4 6
-1 -2 -10 -15 -19 -26 -23 -15 -5 5 7 3 8 -6 3 -10 -6 -12 -4 -6 11 6 15 5 17
-5 7 -10 -10 -10 -16 -1 -25 8 -8 8 -17 1 -30 -12 -22 -6 -34 10 -24 6 4 8 13
4 21 -3 8 -1 15 4 15 6 0 9 -12 8 -27 -1 -21 -6 -28 -21 -26 -17 1 -16 -1 6
-19 23 -20 23 -21 4 -16 -22 6 -24 -1 -9 -34 4 -10 12 -15 19 -12 6 3 1 -3
-12 -13 -20 -16 -21 -21 -9 -31 7 -7 17 -9 20 -5 4 3 7 1 7 -6 0 -8 -8 -11
-19 -8 -19 5 -23 -15 -6 -30 4 -4 5 -2 0 6 -5 9 -4 12 3 8 5 -4 9 -18 7 -32
-1 -14 2 -25 8 -25 6 0 2 -7 -9 -16 -13 -11 -14 -14 -3 -11 9 3 16 -1 16 -8 0
-7 -6 -11 -14 -8 -19 8 -16 -3 8 -26 21 -19 21 -20 1 -15 -29 8 -38 -14 -10
-25 16 -7 18 -10 6 -10 -14 -1 -15 -5 -7 -31 7 -18 15 -27 22 -23 7 4 6 -1 -2
-10 -15 -19 -26 -23 -15 -5 5 7 3 8 -6 3 -10 -6 -12 -4 -6 11 6 15 5 17 -5 7
-10 -10 -10 -16 -1 -25 8 -8 8 -17 1 -30 -12 -22 -6 -34 10 -24 6 4 8 13 4 21
-3 8 -1 15 4 15 6 0 9 -12 8 -27 -1 -21 -6 -28 -21 -26 -17 1 -16 -1 6 -19 23
-20 23 -21 4 -16 -22 6 -24 -1 -9 -34 4 -10 12 -15 19 -12 6 3 1 -3 -12 -13
-20 -16 -21 -21 -9 -31 7 -7 17 -9 20 -5 4 3 7 1 7 -6 0 -8 -8 -11 -19 -8 -19
5 -23 -15 -6 -30 4 -4 5 -2 0 6 -5 9 -4 12 2 8 6 -4 10 -17 9 -29 -1 -13 3
-26 9 -30 6 -5 5 -8 -4 -8 -11 0 -11 -3 0 -17 13 -15 12 -15 -11 -3 l-25 13
20 -23 c16 -19 17 -22 3 -17 -18 7 -18 -7 1 -42 12 -21 11 -23 -2 -18 -15 6
-17 -8 -4 -30 4 -6 2 -13 -5 -15 -7 -3 -5 -7 6 -11 12 -5 15 -3 10 6 -4 6 -3
8 1 4 5 -4 10 -14 11 -22 2 -12 -2 -13 -19 -3 l-22 11 20 -23 c16 -19 17 -22
3 -17 -18 7 -18 -7 1 -42 12 -21 11 -23 -2 -18 -15 6 -17 -8 -4 -30 4 -6 2
-13 -5 -15 -7 -3 -5 -7 6 -11 12 -5 15 -3 10 6 -4 6 -3 8 1 4 5 -4 10 -14 11
-22 2 -12 -2 -13 -19 -3 l-22 11 20 -23 c16 -19 17 -22 3 -17 -18 7 -18 -7 1
-42 12 -21 11 -23 -2 -18 -15 6 -17 -8 -4 -30 4 -6 2 -13 -5 -15 -7 -3 -5 -7
6 -11 12 -5 15 -3 10 6 -4 6 -3 8 1 4 5 -4 10 -14 11 -22 2 -12 -2 -13 -19 -3
l-22 11 20 -23 c16 -19 17 -22 3 -17 -18 7 -18 -7 1 -42 12 -21 11 -23 -2 -18
-15 6 -17 -8 -4 -30 4 -6 1 -14 -5 -16 -10 -4 -10 -6 0 -6 6 -1 12 -6 12 -12
0 -5 -6 -7 -12 -3 -10 5 -10 4 -1 -6 9 -9 9 -19 2 -32 -12 -22 -6 -34 10 -24
6 4 8 13 4 21 -3 8 -1 15 4 15 6 0 9 -12 8 -27 -1 -21 -6 -28 -21 -26 -17 1
-16 -1 6 -19 23 -20 23 -21 4 -16 -22 6 -24 -1 -9 -34 4 -10 12 -15 19 -12 6
3 1 -3 -12 -13 -20 -16 -21 -21 -9 -31 7 -7 17 -9 20 -5 4 3 7 1 7 -6 0 -8 -8
-11 -19 -8 -19 5 -23 -15 -6 -30 4 -4 5 -2 0 6 -5 9 -4 12 3 8 5 -4 9 -18 7
-32 -1 -14 2 -25 8 -25 6 0 2 -7 -9 -16 -13 -11 -14 -14 -3 -11 9 3 16 -1 16
-8 0 -7 -6 -11 -14 -8 -19 8 -16 -3 8 -26 21 -19 21 -20 1 -15 -29 8 -38 -14
-10 -25 16 -7 18 -10 6 -10 -14 -1 -15 -5 -7 -31 7 -18 15 -27 22 -23 7 4 6
-1 -2 -10 -15 -19 -26 -23 -15 -5 5 7 3 8 -6 3 -10 -6 -12 -4 -6 11 6 15 5 17
-5 6 -10 -9 -10 -15 -1 -24 8 -8 8 -17 1 -30 -12 -22 -6 -34 10 -24 6 4 8 13
4 21 -3 8 -1 15 4 15 6 0 9 -12 8 -28 -1 -20 -6 -27 -21 -25 -17 1 -16 -1 6
-19 23 -20 23 -21 4 -16 -22 6 -24 -1 -9 -34 4 -10 12 -15 19 -12 6 3 1 -3
-12 -13 -20 -16 -21 -21 -9 -31 7 -7 17 -9 20 -5 4 3 7 1 7 -6 0 -8 -8 -11
-19 -8 -19 5 -23 -15 -6 -30 4 -4 5 -2 0 6 -5 9 -4 12 3 8 5 -4 9 -18 7 -32
-1 -14 2 -25 8 -25 6 0 2 -7 -9 -16 -13 -11 -14 -14 -3 -11 9 3 16 -1 16 -8 0
-7 -6 -11 -14 -8 -19 8 -16 -3 8 -26 21 -19 21 -20 1 -15 -29 8 -38 -14 -10
-25 16 -7 18 -10 6 -10 -14 -1 -15 -5 -7 -31 6 -16 15 -27 20 -24 15 9 10 -3
-8 -17 -14 -12 -16 -12 -8 0 6 10 4 12 -5 6 -10 -6 -12 -4 -6 11 6 15 5 17 -5
7 -10 -10 -10 -16 -1 -25 8 -8 8 -17 1 -30 -12 -22 -6 -34 10 -24 6 4 8 13 4
21 -3 8 -1 15 4 15 6 0 9 -12 8 -28 -1 -20 -6 -27 -21 -25 -17 1 -16 -1 6 -19
23 -20 23 -21 4 -16 -22 6 -24 -1 -9 -34 4 -10 12 -15 19 -12 6 3 1 -3 -12
-13 -20 -16 -21 -21 -9 -31 7 -7 17 -9 20 -5 4 3 7 1 7 -6 0 -8 -8 -11 -19 -8
-19 5 -23 -15 -6 -30 4 -4 5 -2 0 6 -5 9 -4 12 2 8 6 -4 10 -17 9 -29 -1 -13
3 -26 9 -30 6 -5 5 -8 -4 -8 -11 0 -11 -3 0 -17 13 -15 12 -15 -11 -3 l-25 13
20 -23 c11 -12 20 -25 20 -29 0 -3 4 -5 8 -3 5 1 5 -3 2 -9 -5 -8 -10 -8 -18
0 -19 19 -28 12 -13 -11 7 -13 12 -31 11 -41 -2 -9 0 -17 4 -17 4 0 8 -11 9
-25 1 -14 -2 -25 -6 -25 -7 0 -9 9 -14 65 -2 30 -12 23 -14 -10 0 -14 3 -25 8
-25 5 0 8 -8 6 -17 -2 -12 4 -19 19 -21 13 -2 23 -8 23 -13 0 -5 5 -9 11 -9 5
0 8 4 5 8 -3 5 1 9 9 9 12 0 12 -4 -2 -20 -18 -19 -17 -20 7 -7 23 12 24 12
12 -3 -8 -9 -12 -22 -9 -29 4 -8 6 -7 6 5 1 9 6 17 12 17 6 0 8 -9 4 -22 -5
-18 -4 -20 4 -8 6 8 11 11 11 6 0 -5 8 -2 18 7 15 14 19 15 19 2 0 -8 -5 -11
-11 -8 -6 4 -3 -3 7 -14 16 -19 52 -29 41 -11 -3 5 -10 5 -16 2 -7 -5 -8 -2
-3 6 5 9 4 11 -3 6 -8 -5 -10 -2 -6 8 3 9 10 16 16 16 5 0 6 -5 3 -10 -3 -6 1
-13 9 -16 8 -3 18 -15 21 -25 6 -17 9 -18 23 -7 12 10 14 10 8 0 -9 -16 6 -16
23 1 11 10 13 10 7 -1 -4 -6 -2 -12 4 -12 6 0 9 -4 5 -9 -3 -6 3 -8 14 -6 15
3 18 0 14 -12 -4 -11 -2 -14 5 -9 7 4 15 0 19 -10 5 -14 8 -13 20 7 10 16 12
18 8 5 -3 -11 0 -23 7 -28 19 -12 30 -10 22 5 -5 7 -1 6 10 -3 23 -18 46 -22
46 -7 0 7 5 5 10 -3 5 -8 10 -19 10 -25 0 -5 -4 -4 -9 3 -6 11 -10 9 -14 -7
-4 -17 -2 -19 13 -11 10 5 21 15 24 22 4 7 4 -3 2 -22 -3 -19 -2 -29 1 -22 3
8 11 5 25 -10 11 -13 17 -17 13 -10 -4 7 1 12 12 12 11 0 25 6 33 13 8 6 6 2
-4 -10 -20 -24 -9 -32 13 -10 10 10 12 9 9 -3 -1 -9 1 -15 7 -15 5 0 9 7 8 15
-2 10 -1 11 3 2 5 -10 9 -10 22 0 15 12 16 11 3 -5 -13 -16 -13 -20 -1 -27 16
-10 33 -3 25 11 -4 5 -1 9 4 9 14 0 14 -13 -1 -28 -7 -7 -17 -8 -28 -2 -12 6
-17 5 -17 -5 0 -8 4 -12 9 -9 5 3 16 0 25 -8 12 -9 15 -9 9 0 -4 7 -1 12 9 12
9 0 14 -4 11 -8 -2 -4 -1 -14 5 -22 5 -8 9 -10 9 -4 0 6 6 11 13 11 6 0 21 4
32 8 l20 8 -20 -17 c-20 -16 -19 -16 7 -12 15 3 30 0 34 -5 3 -5 10 -6 16 -3
7 4 8 2 4 -4 -6 -11 6 -16 27 -13 4 0 7 -3 7 -9 0 -5 -3 -10 -6 -10 -11 0 -49
23 -56 34 -11 16 -9 -6 2 -24 5 -8 23 -15 40 -15 17 0 36 -7 41 -15 9 -12 10
-12 5 3 -3 9 -1 17 4 17 5 0 12 -9 15 -20 3 -11 11 -20 18 -20 8 0 8 3 -1 12
-7 7 -12 17 -12 22 0 6 7 0 16 -13 14 -19 14 -25 3 -33 -10 -6 -7 -7 10 -3 15
5 21 3 17 -3 -3 -6 -1 -14 5 -18 7 -4 9 -3 6 3 -4 6 2 13 13 16 16 4 18 2 11
-12 -7 -13 -5 -17 10 -18 10 -1 19 3 19 8 0 6 -6 7 -13 3 -6 -4 -8 -3 -4 1 4
5 14 10 22 11 11 2 14 -5 10 -24 -5 -26 -5 -26 5 -4 5 13 14 20 20 17 7 -4 7
-13 0 -26 -6 -10 -7 -19 -3 -18 20 3 27 -2 13 -11 -9 -6 -10 -10 -3 -10 6 0
15 4 18 10 3 5 11 10 16 10 6 0 8 -4 5 -8 -2 -4 -1 -14 5 -22 7 -13 9 -13 9 0
0 12 2 12 9 2 7 -11 9 -11 14 1 4 12 0 15 -15 12 -11 -3 -18 -1 -14 2 13 13
35 11 48 -5 11 -13 11 -14 -1 -7 -10 5 -12 4 -7 -3 10 -17 59 -16 50 0 -4 7 2
5 14 -6 23 -20 19 -45 -4 -25 -8 6 -16 10 -19 7 -2 -2 10 -12 27 -22 17 -11
28 -14 25 -8 -10 14 18 23 32 9 8 -8 11 -7 11 3 0 7 3 11 6 8 3 -4 1 -16 -6
-27 -13 -25 -5 -27 16 -6 9 8 21 15 27 15 7 0 4 -5 -5 -11 -20 -11 -24 -29 -7
-29 5 0 7 5 4 10 -3 6 -1 10 4 10 6 0 11 -5 11 -11 0 -5 4 -8 9 -5 5 3 14 -1
20 -8 9 -11 9 -16 0 -22 -8 -5 -9 -3 -4 6 5 9 4 11 -4 6 -6 -4 -9 -11 -6 -16
6 -9 37 -6 55 5 6 3 10 2 10 -4 0 -5 -3 -11 -8 -14 -4 -2 -2 -2 5 -1 6 2 14
-2 17 -9 3 -7 4 -1 1 13 -3 14 -2 19 1 13 3 -7 12 -13 20 -13 8 0 14 -5 14
-11 0 -5 -5 -7 -12 -3 -7 4 -8 3 -4 -5 6 -9 11 -9 22 0 7 6 11 16 7 22 -3 6
-1 7 6 3 9 -6 9 -11 0 -22 -9 -11 -9 -18 -1 -26 7 -7 12 -8 12 -2 0 5 5 2 10
-6 6 -10 10 -11 10 -2 0 6 5 12 11 12 5 0 8 -4 5 -9 -9 -14 37 -21 53 -8 12
10 13 9 2 -11 -7 -13 -10 -26 -7 -30 3 -3 6 0 6 6 0 7 7 12 15 12 8 0 15 -6
15 -12 0 -9 4 -8 11 2 8 12 9 10 4 -7 -4 -16 0 -25 17 -33 22 -11 22 -10 4 4
-21 17 -11 22 14 6 9 -6 17 -5 21 1 4 7 9 4 12 -6 4 -9 3 -13 -2 -10 -5 3 -13
0 -17 -7 -4 -7 -4 -10 1 -6 4 4 15 2 23 -5 10 -7 13 -8 9 -1 -7 11 32 28 42
19 2 -3 -1 -5 -7 -5 -6 0 -16 -10 -22 -23 -10 -20 -10 -20 3 -4 17 20 29 22
25 4 -2 -7 -1 -12 2 -12 3 0 18 -8 32 -17 25 -17 28 -17 44 -1 16 16 16 16 10
-3 -4 -14 -2 -21 8 -21 8 0 12 6 9 14 -3 7 0 13 6 13 6 0 10 -3 10 -8 -3 -19
2 -33 11 -27 5 3 10 2 10 -4 0 -5 -5 -11 -12 -13 -7 -3 -5 -7 6 -11 9 -4 15
-3 11 2 -3 5 -1 12 5 16 5 3 10 -1 10 -9 0 -9 5 -16 11 -16 5 0 7 -5 3 -12 -4
-6 -3 -8 4 -4 6 3 9 16 7 28 -3 11 -1 17 3 14 7 -7 8 -11 11 -37 0 -5 5 -8 11
-4 5 3 8 11 6 18 -1 7 -1 9 1 4 3 -4 9 -4 15 -1 5 4 5 -4 -2 -16 -7 -12 -7
-20 -2 -16 6 3 12 1 14 -5 3 -8 9 -7 19 3 12 12 17 12 26 2 9 -9 9 -14 -3 -18
-10 -4 -13 -2 -8 6 4 6 3 8 -4 5 -5 -4 -8 -17 -4 -29 5 -21 6 -21 13 -2 6 18
8 17 18 -6 9 -19 11 -20 8 -5 -6 29 29 31 37 2 6 -22 7 -22 21 -3 8 11 15 14
15 7 0 -7 5 -9 12 -5 7 4 8 3 4 -5 -4 -6 -12 -8 -18 -5 -7 4 -8 2 -4 -5 4 -6
12 -9 17 -6 5 4 9 0 9 -7 0 -9 3 -9 10 2 8 13 10 13 10 -2 0 -12 6 -16 20 -13
11 2 18 0 15 -4 -2 -5 2 -14 10 -21 13 -11 14 -10 9 6 -4 13 -3 15 3 6 6 -7
23 -14 39 -15 26 -2 29 -6 27 -32 -3 -28 -2 -28 7 -7 5 12 15 22 22 21 10 0
10 -2 1 -6 -24 -9 -13 -23 13 -19 26 5 26 5 8 -15 -17 -19 -17 -19 24 -14 27
3 42 1 42 -5 0 -6 -4 -9 -9 -5 -5 3 -12 1 -16 -4 -3 -6 5 -8 20 -5 14 2 25 1
24 -3 -5 -29 2 -36 17 -17 14 18 15 18 9 -6 -5 -19 -4 -22 4 -10 7 10 11 11
11 3 0 -7 7 -13 16 -13 9 0 12 -5 8 -12 -9 -14 26 10 38 27 5 7 8 6 8 -1 0 -5
-5 -15 -10 -22 -6 -6 -7 -10 -4 -7 10 7 35 -16 28 -26 -6 -10 26 0 44 14 10 8
12 7 10 -4 -2 -8 3 -13 10 -11 6 1 12 -5 12 -15 0 -14 -2 -14 -20 2 -11 10
-20 13 -20 8 0 -6 7 -14 16 -17 9 -3 12 -11 8 -18 -4 -7 2 -4 14 6 12 11 22
15 22 9 0 -5 11 -15 25 -21 35 -16 46 -15 16 2 -20 11 -21 14 -7 19 12 5 15 3
10 -5 -5 -7 -2 -9 8 -5 19 7 18 -21 -1 -33 -9 -5 -4 -7 12 -7 19 0 24 4 21 16
-2 9 2 2 11 -16 11 -24 19 -31 32 -26 11 4 14 3 9 -6 -7 -10 -4 -10 12 0 16
10 23 10 36 -3 9 -9 11 -18 6 -20 -6 -2 -1 -9 11 -16 12 -8 18 -9 14 -3 -3 6
1 11 10 11 9 0 14 -4 11 -9 -3 -5 1 -14 8 -20 10 -8 16 -9 21 -1 6 10 -1 14
-20 10 -5 -1 -6 2 -2 6 10 10 38 15 33 5 -3 -4 -1 -13 5 -21 7 -12 9 -9 10 10
l1 25 7 -24 c3 -13 17 -31 31 -40 14 -9 21 -11 16 -3 -4 6 -2 12 3 12 12 0 15
-26 4 -33 -5 -2 -2 -2 5 -1 6 2 12 -2 12 -8 0 -6 10 0 21 13 l21 24 -7 -25
c-7 -22 -6 -23 8 -12 10 9 17 10 22 2 3 -5 11 -10 17 -10 6 0 5 7 -3 17 -13
16 -12 17 4 4 14 -11 15 -16 5 -29 -11 -13 -10 -15 5 -9 19 7 24 -9 5 -16 -8
-4 -7 -6 4 -6 9 -1 19 7 21 17 4 13 5 11 6 -5 0 -13 6 -23 12 -23 6 0 8 8 5
18 -5 14 -4 14 9 -2 8 -11 15 -16 15 -12 0 5 7 3 16 -5 8 -7 13 -21 11 -31 -3
-10 -1 -16 4 -12 5 3 9 14 9 25 0 10 4 19 9 19 4 0 7 -10 6 -23 -3 -26 19 -33
43 -14 10 8 12 7 10 -3 -2 -10 6 -14 25 -14 20 1 25 -2 18 -9 -17 -17 -13 -31
4 -17 18 15 25 10 28 -19 1 -11 5 -21 10 -21 4 0 7 6 6 13 -3 25 1 34 17 34
14 0 14 -2 -2 -14 -10 -7 -13 -13 -8 -13 6 0 19 -7 30 -16 18 -14 18 -15 -4
-4 -17 8 -22 8 -20 -2 2 -7 -3 -12 -10 -10 -8 1 -11 -2 -7 -8 5 -8 11 -8 20 0
8 7 19 9 24 6 5 -4 15 2 21 11 11 17 11 17 6 -1 -9 -25 22 -48 47 -34 10 5 22
6 25 2 4 -4 1 -9 -5 -11 -7 -3 -13 -9 -13 -14 0 -5 6 -8 13 -7 6 2 11 -4 9
-12 -2 -8 0 -12 3 -8 4 4 17 3 28 -3 12 -7 17 -7 13 -1 -3 5 1 13 10 16 8 3
13 2 10 -3 -3 -5 1 -12 10 -15 8 -3 12 -2 9 3 -10 18 12 20 34 5 17 -13 20
-19 10 -30 -13 -16 2 -19 17 -4 6 6 14 2 23 -13 13 -21 13 -21 -4 -7 -17 14
-18 14 -6 -9 10 -19 15 -21 22 -10 5 8 6 23 4 34 -4 17 -3 16 6 -2 13 -25 29
-30 29 -10 0 8 4 7 10 -3 5 -8 7 -24 4 -35 -3 -11 -2 -15 3 -9 14 19 43 25 43
9 0 -17 17 -20 22 -4 2 6 9 -1 16 -16 l13 -27 -36 20 c-19 12 -35 18 -35 13 0
-5 14 -14 30 -21 17 -7 30 -16 30 -21 0 -5 5 -9 11 -9 5 0 7 4 4 10 -8 13 -3
13 30 0 16 -6 23 -14 19 -22 -4 -6 -3 -8 4 -4 5 3 12 0 15 -6 3 -7 4 -3 4 10
-1 12 -5 22 -9 22 -4 0 -8 5 -8 12 0 6 7 4 18 -5 10 -10 23 -14 27 -10 5 5 3
-1 -5 -11 -12 -15 -12 -20 -2 -23 6 -3 10 -9 6 -14 -3 -5 -1 -8 5 -7 5 2 17
-6 26 -17 16 -20 16 -20 6 2 -8 16 -7 22 5 27 8 3 13 2 10 -2 -2 -4 4 -19 15
-32 12 -15 17 -18 13 -7 -5 13 -2 16 10 11 9 -3 24 0 34 7 15 12 16 12 5 -2
-7 -9 -9 -20 -5 -24 4 -5 1 -5 -6 -1 -11 7 -11 4 0 -13 7 -11 19 -23 26 -26 7
-2 11 -1 9 3 -3 4 1 13 9 20 8 7 14 8 14 2 0 -5 6 -10 13 -10 8 0 19 -10 26
-22 6 -13 9 -15 7 -6 -3 10 0 20 6 24 7 4 8 3 4 -4 -4 -7 -2 -12 4 -12 6 0 8
-5 4 -13 -5 -7 -2 -7 10 2 9 8 16 10 15 5 -4 -21 2 -35 11 -29 13 8 13 -7 0
-23 -7 -9 -7 -9 2 -2 8 6 17 5 26 -3 13 -10 14 -9 2 13 -13 24 -12 24 5 10 10
-8 20 -14 22 -12 3 2 8 0 11 -4 4 -4 1 -4 -5 0 -7 4 -13 2 -13 -3 0 -17 20
-13 27 5 4 12 8 13 14 3 4 -7 3 -19 -2 -25 -7 -8 -6 -15 2 -20 8 -4 9 -3 5 4
-4 7 -2 12 3 12 10 0 15 -14 12 -33 -1 -5 3 -6 8 -3 5 4 12 2 16 -3 3 -6 13
-7 23 -4 15 6 16 5 2 -13 -13 -17 -13 -18 0 -7 24 19 26 19 45 3 17 -14 18
-14 5 10 -9 19 -10 22 0 13 7 -6 18 -10 24 -9 6 2 8 1 4 -1 -5 -3 -8 -9 -8
-14 0 -6 5 -7 10 -4 9 6 14 -8 11 -27 0 -5 4 -8 10 -8 5 0 7 -6 3 -13 -6 -9
-4 -9 7 -2 18 13 55 12 52 -1 -1 -5 7 -10 17 -10 10 0 16 6 13 13 -3 7 -10 10
-16 6 -6 -3 -7 -1 -3 6 6 8 12 9 20 2 7 -6 17 -7 21 -3 5 4 5 1 1 -5 -4 -8 -1
-13 9 -13 10 0 14 -5 9 -12 -5 -10 -3 -10 7 0 12 11 12 14 0 21 -9 6 -3 8 18
7 17 0 31 -4 31 -8 0 -5 5 -8 11 -8 5 0 8 3 6 8 -3 4 12 7 34 8 23 1 36 -3 32
-9 -3 -6 -1 -7 5 -3 6 4 9 13 5 22 -4 10 -9 11 -17 5 -8 -7 -16 -3 -26 12 -12
19 -11 21 2 9 12 -10 21 -10 47 1 17 7 28 16 24 20 -3 4 -1 7 5 7 7 0 12 -6
13 -12 0 -7 4 -4 9 7 6 15 9 16 9 4 1 -9 8 -16 16 -16 10 0 12 4 5 12 -7 9 -6
16 4 24 11 9 16 9 22 0 4 -8 3 -9 -4 -5 -17 10 -15 1 2 -13 12 -10 14 -7 12
17 -1 22 2 28 19 27 11 0 25 -3 31 -7 6 -4 11 -1 11 7 0 8 -5 11 -11 8 -6 -4
-5 1 3 10 8 10 16 15 18 13 3 -3 16 -1 29 4 18 7 26 5 34 -8 11 -16 11 -16 6
0 -4 12 -1 15 11 11 12 -5 14 -1 9 14 -3 11 0 27 9 39 10 12 14 14 13 5 -2 -8
5 -17 16 -19 11 -2 16 0 12 7 -4 6 -3 11 3 11 5 0 11 -5 13 -11 4 -13 48 10
48 25 0 5 -8 2 -18 -7 -15 -14 -19 -15 -19 -2 0 8 4 12 8 9 4 -2 11 0 14 6 5
8 11 7 21 -1 7 -6 11 -16 7 -23 -4 -6 2 -4 13 4 10 8 21 16 24 18 3 2 -4 2
-15 0 -12 -2 -20 3 -20 12 -1 8 -7 14 -14 12 -7 -1 -9 2 -6 9 5 8 10 8 18 0
16 -16 50 -14 41 1 -6 10 -4 10 8 0 13 -10 18 -10 24 -1 5 8 3 9 -6 4 -8 -5
-11 -4 -7 1 8 14 63 9 59 -5 -1 -7 2 -10 8 -6 6 4 6 12 -2 24 -8 13 -8 23 1
37 11 18 12 18 6 -3 -3 -12 -1 -24 4 -28 7 -4 8 1 4 12 -6 16 -4 16 18 -2 18
-15 20 -16 10 -2 -10 12 -10 17 -2 17 7 0 9 5 5 11 -4 8 -9 7 -16 -2 -8 -12
-9 -12 -6 0 2 8 16 15 30 15 21 1 24 -1 16 -11 -8 -10 -7 -12 5 -7 9 3 17 15
19 27 2 14 9 21 18 18 34 -8 58 -8 71 0 10 7 6 8 -13 5 -15 -3 -31 0 -34 6 -5
7 -2 8 6 3 10 -6 12 -4 6 11 -4 10 -4 15 0 11 4 -4 13 -2 20 4 8 7 14 6 20 -2
4 -7 3 -9 -4 -5 -6 3 -13 2 -16 -3 -7 -10 20 -9 30 2 14 13 23 7 17 -10 -7
-19 -5 -18 17 11 13 18 13 19 0 11 -9 -5 -12 -4 -7 1 5 5 16 9 25 9 10 0 16 7
16 18 -2 17 -1 17 17 1 10 -9 16 -22 12 -28 -3 -6 -2 -7 2 -3 12 10 15 38 4
31 -5 -3 -9 0 -9 5 0 6 -1 14 -2 18 -2 3 5 7 15 9 9 1 15 -2 11 -7 -3 -5 0 -9
5 -9 6 0 11 6 11 14 0 8 5 18 12 22 7 5 8 3 3 -6 -6 -10 -4 -12 7 -7 9 3 21 0
28 -6 10 -9 11 -9 5 1 -5 10 -1 13 16 10 21 -3 24 1 23 33 0 28 3 36 14 32 10
-4 11 -8 2 -13 -7 -5 -2 -9 14 -12 14 -3 23 -1 20 3 -5 8 19 14 41 9 5 -1 1 7
-8 18 -14 15 -15 22 -6 28 7 4 10 3 6 -3 -3 -5 3 -17 14 -27 20 -17 21 -17 15
2 -4 11 0 24 9 32 8 7 13 16 10 20 -3 5 0 12 6 16 7 4 9 3 5 -4 -3 -6 -2 -13
3 -16 5 -4 12 -2 16 4 3 5 17 10 31 10 14 0 23 4 20 8 -3 5 1 9 9 9 8 0 12 -4
10 -8 -3 -4 2 -9 10 -12 10 -4 12 -1 8 10 -5 13 -2 15 11 10 11 -4 15 -3 11 4
-4 6 -1 10 6 8 8 -1 21 -1 29 0 13 1 13 3 1 10 -8 5 -23 8 -33 6 -10 -2 -16 0
-13 5 3 4 16 7 30 6 14 -2 26 3 30 12 5 12 9 12 27 -4 12 -11 18 -13 14 -6 -6
10 6 17 18 10 2 -2 13 6 25 16 14 13 21 15 21 6 0 -7 2 -11 5 -8 3 3 1 18 -5
34 l-10 29 19 -23 c21 -24 32 -28 29 -10 -4 18 51 43 65 29 6 -6 16 -11 21
-11 6 0 0 7 -12 16 -12 8 -22 21 -21 27 0 9 2 9 6 0 2 -7 12 -13 20 -13 12 0
13 3 4 14 -9 11 -9 16 0 22 7 4 9 3 6 -3 -4 -6 0 -14 9 -17 9 -3 12 -11 8 -18
-4 -8 -3 -10 2 -5 12 12 12 30 -1 39 -6 5 -2 8 8 8 11 0 15 4 11 12 -4 7 -3 8
5 4 6 -4 8 -12 5 -18 -4 -6 1 -8 15 -3 12 4 28 2 36 -5 10 -8 15 -8 21 1 4 7
3 9 -4 5 -6 -3 -16 3 -22 14 -10 18 -9 19 15 10 19 -7 24 -7 19 2 -5 7 -2 9 9
5 11 -4 14 -2 10 9 -4 11 -9 12 -18 4 -14 -11 -33 5 -21 17 3 4 6 1 6 -7 0 -9
3 -10 13 -1 20 16 90 23 80 8 -5 -9 -3 -9 9 0 8 7 19 9 23 5 5 -4 5 -1 1 6 -4
7 -11 10 -16 7 -5 -3 -11 -1 -15 4 -8 13 33 5 52 -10 11 -10 14 -10 11 2 -2 8
3 13 11 11 11 -2 12 0 3 11 -14 16 -6 27 20 27 10 0 18 5 18 11 0 5 -4 7 -10
4 -16 -10 -11 1 7 16 9 8 14 9 10 3 -3 -6 0 -20 8 -30 13 -18 14 -17 8 6 l-6
25 23 -20 c13 -11 20 -14 15 -6 -6 11 -4 13 9 8 10 -4 15 -3 11 3 -3 6 -1 10
4 10 6 0 11 8 10 18 0 10 -3 12 -6 4 -7 -17 -43 -36 -43 -22 0 5 7 10 16 10 8
0 13 4 10 9 -9 14 16 20 38 9 12 -7 16 -7 12 0 -3 5 5 17 19 26 32 21 42 20
18 -1 -10 -10 -14 -15 -9 -10 6 4 18 7 29 7 10 0 15 4 12 10 -3 5 -2 10 4 10
5 0 12 -6 14 -12 4 -8 6 -7 6 4 1 9 -5 19 -11 21 -10 4 -10 6 0 6 7 1 10 5 7
11 -3 6 1 7 10 3 12 -4 13 -8 5 -13 -8 -5 -9 -10 -2 -14 6 -3 13 2 17 13 3 11
17 27 31 36 24 16 25 16 15 -3 -7 -14 -7 -19 4 -19 8 0 12 4 9 9 -3 5 6 7 20
4 25 -5 41 5 29 18 -3 3 -12 1 -20 -5 -8 -7 -13 -8 -13 -1 0 5 6 12 14 15 22
9 51 1 48 -13 -1 -6 2 -9 8 -5 8 5 7 11 -1 22 -11 12 -10 14 6 11 11 -2 23 5
29 18 9 16 17 19 38 13 20 -5 25 -4 21 6 -2 8 -12 11 -21 8 -14 -4 -15 -3 -2
5 9 7 18 7 26 1 8 -7 17 -5 28 6 9 9 20 14 25 10 5 -3 13 0 17 6 4 7 3 9 -4 5
-6 -3 -13 -2 -17 4 -3 6 4 10 17 10 13 0 29 5 36 12 8 8 15 8 26 -1 11 -9 16
-9 22 1 12 19 14 39 3 32 -5 -3 -7 -9 -4 -14 3 -5 1 -11 -4 -14 -5 -3 -11 3
-14 14 -3 11 -1 17 4 14 5 -3 12 2 15 10 8 20 33 -2 27 -24 -2 -8 1 -6 8 4 9
15 9 21 1 24 -7 2 -12 8 -12 13 0 11 23 7 32 -6 5 -6 12 -5 20 4 10 10 10 12
1 7 -19 -10 -16 -1 4 15 11 10 14 10 9 2 -4 -8 -2 -13 4 -13 6 0 8 -5 4 -12
-6 -9 -3 -9 9 0 9 8 22 10 28 6 7 -4 9 -3 5 4 -3 6 2 15 11 21 10 6 13 11 8
11 -6 0 -16 -5 -23 -12 -7 -7 -12 -8 -12 -2 0 5 -5 2 -11 -6 -9 -13 -10 -13
-6 0 2 8 10 14 16 12 6 -1 11 2 11 8 0 5 9 10 20 10 11 0 20 6 20 13 0 9 3 8
9 -2 7 -10 10 -10 16 -1 4 7 1 17 -6 22 -12 8 -11 9 1 5 8 -2 15 -13 14 -25 0
-12 3 -19 8 -16 4 3 8 12 8 21 0 11 6 14 21 10 17 -4 18 -3 8 9 -10 12 -9 13
5 8 9 -3 23 -1 31 6 8 6 20 8 27 4 9 -6 9 -3 -1 10 -12 14 -12 19 -1 29 10 9
11 9 6 0 -4 -7 -3 -13 3 -13 5 0 18 -3 28 -7 17 -7 17 -6 1 11 -10 9 -18 19
-18 21 0 8 35 -8 42 -19 4 -6 8 -1 8 12 0 12 4 22 9 22 6 0 8 -10 6 -21 -3
-12 -1 -18 3 -15 7 8 8 13 11 42 0 8 5 13 11 9 5 -3 7 -12 4 -19 -3 -8 -1 -17
4 -20 5 -3 9 2 8 12 0 9 5 16 12 14 8 -1 11 2 7 8 -3 6 -12 7 -18 4 -7 -4 -9
-4 -5 1 4 4 2 15 -4 24 -10 13 -10 14 2 4 18 -16 34 -17 24 -1 -5 7 -3 8 6 3
10 -6 12 -3 7 11 -6 17 -5 17 5 3 17 -21 58 -32 51 -13 -3 8 -10 14 -16 14 -6
0 -8 3 -5 6 4 3 15 1 25 -4 11 -6 25 -7 32 -3 11 7 11 9 0 14 -12 4 -12 7 0
18 9 9 11 9 7 2 -4 -7 -2 -13 3 -13 6 0 11 5 11 11 0 6 7 9 15 5 10 -3 15 1
15 12 0 14 2 15 9 2 6 -8 7 -18 4 -23 -3 -5 6 -1 21 8 14 10 26 13 26 9 0 -5
5 -1 11 8 6 11 16 15 27 11 22 -8 13 1 -15 16 -19 10 -22 9 -17 -4 5 -13 -1
-17 -22 -14 -4 0 -11 -5 -16 -13 -8 -10 -9 -10 -5 2 2 8 10 15 18 15 8 0 14 7
14 15 0 9 10 15 25 15 15 1 24 6 22 14 -1 7 2 10 8 6 5 -3 10 -1 10 6 0 7 10
1 21 -12 21 -23 21 -23 15 -2 -4 12 -2 24 5 29 8 4 9 3 5 -4 -4 -7 -2 -12 4
-12 6 0 8 -5 4 -12 -5 -7 -3 -8 5 -4 7 5 10 13 8 20 -3 6 3 18 11 26 14 13 15
12 9 -3 -3 -9 -2 -17 2 -17 15 0 20 27 8 39 -6 6 -7 11 -3 11 5 0 15 -8 23
-17 13 -16 13 -16 7 7 l-6 25 22 -25 22 -25 -7 24 c-5 17 -4 21 5 16 6 -4 21
1 32 12 14 11 18 13 13 3 -13 -21 -15 -41 -4 -34 5 3 6 10 3 16 -5 8 -1 9 10
5 9 -4 15 -3 12 2 -6 9 22 26 37 22 5 -1 6 3 2 9 -4 7 -12 7 -25 0 -13 -7 -21
-7 -25 0 -4 6 -3 10 2 9 20 -3 34 2 28 11 -4 6 -11 7 -17 4 -7 -4 -8 -2 -4 4
5 9 14 7 32 -4 22 -15 24 -15 25 2 0 11 3 14 6 7 2 -7 9 -13 14 -13 5 0 8 6 7
13 -2 6 4 12 12 12 8 0 21 4 28 8 6 5 16 6 21 2 5 -3 13 0 17 6 4 7 3 9 -4 5
-6 -3 -14 -2 -17 4 -4 6 -1 9 7 8 7 -2 12 2 11 9 -3 15 20 11 43 -7 16 -14 16
-13 4 10 -13 24 -12 25 7 7 19 -16 20 -16 36 1 10 10 14 23 10 28 -5 5 2 0 15
-10 12 -11 25 -16 29 -13 3 4 1 7 -5 7 -18 0 -34 37 -20 46 6 4 9 3 6 -2 -3
-5 1 -15 10 -23 13 -13 14 -12 9 12 -4 14 -3 29 3 32 6 3 7 -1 4 -9 -4 -9 -1
-16 6 -16 7 0 10 -7 6 -16 -3 -9 -2 -12 5 -9 5 4 7 15 4 25 -3 10 0 22 6 26 7
4 9 3 6 -3 -4 -6 1 -13 11 -15 11 -3 19 0 19 8 0 7 -5 10 -10 7 -6 -4 -7 -1
-2 7 6 10 11 9 22 -5 9 -14 13 -15 13 -4 0 11 2 11 9 1 7 -11 9 -10 15 3 3 9
10 13 16 10 6 -4 7 1 3 12 -6 16 -5 16 11 4 13 -11 16 -11 14 -2 -2 8 5 15 16
16 10 2 24 9 30 16 8 9 6 9 -9 2 -11 -6 -28 -9 -38 -8 -9 2 -14 -1 -11 -7 4
-6 -2 -5 -15 1 -27 15 -27 19 4 16 14 -2 27 1 31 6 3 5 10 6 16 3 6 -4 17 1
23 10 11 15 13 15 19 1 4 -11 2 -14 -6 -9 -7 4 -8 3 -4 -4 4 -6 13 -9 21 -6
11 5 12 11 4 25 -7 15 -7 19 3 17 7 -2 12 2 11 8 -1 6 4 11 12 11 8 0 11 -5 8
-10 -3 -5 0 -7 8 -5 8 3 13 10 12 16 -2 6 4 9 12 6 9 -4 23 0 32 7 14 12 16
12 11 -2 -4 -9 -1 -16 8 -16 7 0 11 4 8 9 -5 7 9 12 28 9 3 0 5 15 3 34 -2 27
0 31 10 22 7 -7 11 -15 9 -18 -2 -3 3 -6 11 -6 8 0 17 7 19 14 4 9 1 12 -7 7
-7 -4 -9 -3 -4 2 5 5 14 9 20 9 7 1 11 7 9 15 -3 11 0 11 11 1 12 -9 16 -9 21
1 3 7 3 2 0 -12 -4 -17 -2 -21 4 -11 8 11 10 11 14 0 3 -9 6 -8 11 5 4 10 3
15 -3 11 -6 -3 -10 -1 -10 4 0 6 7 11 15 11 8 0 15 -5 15 -12 0 -6 3 -8 6 -5
4 4 1 14 -7 23 -13 15 -11 17 19 12 18 -2 36 0 39 5 3 6 1 7 -5 3 -6 -3 -13
-2 -17 4 -3 5 3 10 14 10 10 0 21 3 24 8 2 4 2 2 1 -5 -5 -19 14 -26 33 -13
15 9 14 10 -7 4 -21 -6 -23 -5 -13 8 7 8 9 18 5 23 -4 4 3 3 15 -4 16 -8 24
-8 29 1 5 7 3 8 -6 3 -9 -6 -11 -4 -5 4 4 7 16 11 26 8 16 -4 17 -2 8 15 -7
13 -7 18 -1 14 6 -4 15 2 21 11 6 10 11 13 11 7 0 -5 -6 -16 -12 -24 -11 -12
-10 -12 5 -1 9 7 17 20 17 28 0 9 5 11 13 7 6 -4 5 1 -4 12 -10 11 -14 26 -10
36 3 10 6 40 5 68 -1 45 0 49 15 38 11 -8 10 -5 -3 10 -19 22 -32 30 -21 13 3
-5 2 -12 -3 -15 -4 -2 -8 6 -8 19 0 13 4 21 8 19 8 -5 12 16 8 49 -1 10 4 26
12 35 7 8 8 13 2 9 -7 -4 -14 3 -17 19 -3 16 1 28 9 31 8 3 11 10 7 17 -12 18
-11 56 1 56 7 0 8 3 1 8 -6 4 -11 15 -12 25 -1 34 -3 38 -15 32 -7 -4 -4 1 6
9 17 14 17 16 4 16 -9 0 -19 4 -22 9 -4 5 3 7 14 4 16 -4 19 -2 14 11 -3 9 -1
23 5 30 10 11 7 18 -11 30 -17 12 -19 16 -6 16 9 0 20 5 24 12 4 7 3 8 -4 4
-7 -4 -12 -1 -12 9 0 10 5 13 13 9 8 -5 8 -2 -2 9 -14 17 -26 24 -17 9 2 -4 1
-14 -4 -21 -5 -9 -7 -3 -7 17 1 17 5 28 9 26 8 -5 12 17 8 49 -1 10 4 26 12
35 9 11 10 14 1 8 -9 -5 -13 0 -13 14 0 14 4 19 13 14 8 -5 8 -2 -2 9 -14 18
-26 23 -16 8 3 -5 2 -12 -3 -15 -4 -2 -8 6 -8 19 0 13 4 21 8 19 8 -5 12 16 8
49 -1 10 4 26 12 35 7 8 8 13 2 9 -7 -4 -14 3 -17 19 -3 16 1 28 9 31 8 3 11
10 7 17 -12 18 -11 56 1 56 7 0 8 3 1 8 -6 4 -11 15 -12 25 -1 34 -3 38 -15
32 -7 -4 -4 1 6 9 17 14 17 16 4 16 -9 0 -19 4 -22 9 -4 5 3 7 14 4 16 -4 19
-2 14 11 -3 9 -1 23 5 30 10 11 7 18 -11 30 -17 12 -19 16 -6 16 9 0 20 5 24
12 4 7 3 8 -4 4 -7 -4 -12 -1 -12 9 0 10 5 13 13 9 8 -5 8 -2 -2 9 -14 17 -26
24 -17 9 2 -4 1 -14 -4 -21 -5 -9 -7 -3 -7 17 1 17 5 28 9 26 8 -5 12 17 8 49
-1 10 4 26 12 35 9 11 10 14 1 8 -9 -5 -13 0 -13 14 0 14 4 19 13 14 8 -5 8
-2 -2 9 -14 18 -26 23 -16 8 3 -5 2 -12 -3 -15 -4 -2 -8 6 -8 19 0 13 4 21 8
19 8 -5 12 16 8 49 -1 10 4 26 12 35 7 8 8 13 2 9 -7 -4 -14 3 -17 19 -3 16 1
28 9 31 8 3 11 10 7 17 -12 18 -11 56 1 56 7 0 8 3 1 8 -6 4 -11 15 -12 25 -1
34 -3 38 -15 32 -7 -4 -4 1 6 9 17 14 17 16 4 16 -9 0 -19 4 -22 9 -4 5 3 7
14 4 16 -4 19 -2 14 11 -3 9 -1 23 5 30 10 11 7 18 -11 30 -17 12 -19 16 -6
16 9 0 20 5 24 12 4 7 3 8 -4 4 -7 -4 -12 -1 -12 9 0 10 5 13 13 9 8 -5 8 -2
-2 9 -14 17 -26 24 -17 9 2 -4 1 -14 -4 -21 -5 -9 -7 -3 -7 17 1 17 5 28 9 26
8 -5 12 17 8 49 -1 10 4 26 12 35 9 11 10 14 1 8 -9 -5 -13 0 -13 14 0 14 4
19 13 14 8 -5 8 -2 -2 9 -14 18 -26 23 -16 8 3 -5 2 -12 -3 -15 -4 -2 -8 6 -8
19 0 13 4 21 8 19 8 -5 12 16 8 49 -1 10 4 26 12 35 7 8 8 13 2 9 -7 -4 -14 3
-17 19 -3 16 1 28 9 31 8 3 11 10 7 17 -12 18 -11 56 1 56 7 0 8 3 1 8 -6 4
-11 15 -12 25 -1 34 -3 38 -16 32 -6 -4 -3 1 7 9 17 14 17 16 4 16 -9 0 -19 4
-22 9 -4 5 3 7 14 4 16 -4 19 -2 14 11 -3 9 -1 23 5 30 10 11 7 18 -11 30 -17
12 -19 16 -6 16 9 0 20 5 24 12 4 7 3 8 -4 4 -7 -4 -12 -1 -12 9 0 10 5 13 13
9 8 -5 8 -2 -2 9 -14 17 -26 24 -17 9 2 -4 1 -14 -4 -21 -5 -9 -7 -3 -7 17 1
17 5 28 9 26 8 -5 12 17 8 49 -1 10 4 26 12 35 9 11 10 14 1 8 -9 -5 -13 0
-13 14 0 14 4 19 13 14 8 -5 8 -2 -2 9 -14 18 -26 23 -16 8 3 -5 2 -12 -3 -15
-4 -2 -8 6 -8 19 0 13 4 21 8 19 8 -5 12 16 8 49 -1 10 4 26 12 35 7 8 8 13 2
9 -7 -4 -14 3 -17 19 -3 16 1 28 9 31 8 3 11 10 7 17 -12 18 -11 56 1 56 7 0
8 3 1 8 -6 4 -11 15 -12 25 -1 34 -3 38 -15 32 -7 -4 -4 1 6 9 17 14 17 16 4
16 -9 0 -19 4 -22 9 -4 5 3 7 14 4 16 -4 19 -2 14 11 -3 9 -1 23 5 30 10 11 7
18 -11 30 -17 12 -19 16 -6 16 9 0 20 5 24 12 4 7 3 8 -4 4 -7 -4 -12 -1 -12
9 0 10 5 13 13 9 8 -5 8 -2 -2 9 -14 17 -26 24 -17 9 2 -4 1 -14 -4 -21 -5 -9
-7 -3 -7 17 1 17 5 28 9 26 8 -5 12 17 8 49 -1 10 4 26 12 35 9 11 10 14 1 8
-9 -5 -13 0 -13 14 0 14 4 19 13 14 8 -5 8 -2 -2 9 -14 18 -26 23 -16 8 3 -5
2 -12 -3 -15 -4 -2 -8 6 -8 19 0 13 4 21 8 19 8 -5 12 16 8 49 -1 10 4 26 12
35 7 8 8 13 2 9 -7 -4 -14 3 -17 19 -3 16 1 28 9 31 8 3 11 10 7 17 -12 18
-11 56 1 56 7 0 8 3 1 8 -6 4 -11 15 -12 25 -1 34 -3 38 -15 32 -7 -4 -4 1 6
9 17 14 17 16 4 16 -9 0 -19 4 -22 9 -4 5 3 7 14 4 16 -4 19 -2 14 11 -3 9 -1
23 5 30 10 11 7 18 -11 30 -17 12 -19 16 -6 16 9 0 20 5 24 12 4 7 3 8 -4 4
-7 -4 -12 -1 -12 9 0 10 5 13 13 9 8 -5 8 -2 -2 9 -14 17 -26 24 -17 9 2 -4 1
-14 -4 -21 -5 -9 -7 -3 -7 17 1 17 5 28 9 26 8 -5 12 17 8 49 -1 10 4 26 12
35 9 11 10 14 1 8 -9 -5 -13 0 -13 14 0 14 4 19 13 14 8 -5 8 -2 -2 9 -14 18
-26 23 -16 8 3 -5 2 -12 -3 -15 -4 -2 -8 6 -8 19 0 13 4 21 8 19 8 -5 12 16 8
49 -1 10 4 26 12 35 7 8 8 13 2 9 -7 -4 -14 3 -17 19 -3 16 1 28 9 31 8 3 11
10 7 17 -12 18 -11 56 1 56 7 0 8 3 1 8 -6 4 -11 15 -12 25 -1 34 -3 38 -15
32 -7 -4 -4 1 6 9 17 14 17 16 4 16 -9 0 -19 4 -22 9 -4 5 3 7 14 4 16 -4 19
-2 14 11 -3 9 -1 23 5 30 10 11 7 18 -11 30 -17 12 -19 16 -6 16 9 0 20 5 24
12 4 7 3 8 -4 4 -7 -4 -12 -1 -12 9 0 10 5 13 13 9 8 -5 8 -2 -2 9 -14 17 -26
24 -17 9 2 -4 1 -14 -4 -21 -5 -9 -7 -3 -7 17 1 17 5 28 9 26 8 -5 12 17 8 49
-1 10 4 26 12 35 9 11 10 14 1 8 -9 -5 -13 0 -13 14 0 14 4 19 13 14 8 -5 8
-2 -2 9 -14 18 -26 23 -16 8 3 -5 2 -12 -3 -15 -4 -2 -8 6 -8 19 0 13 4 21 8
19 8 -5 12 16 8 49 -1 10 4 26 12 35 7 8 8 13 2 9 -7 -4 -14 3 -17 19 -3 16 1
28 9 31 8 3 11 10 7 17 -12 18 -11 56 1 56 7 0 8 3 1 8 -6 4 -11 15 -12 25 -1
34 -3 38 -15 32 -7 -4 -4 1 6 9 17 14 17 16 4 16 -9 0 -19 4 -22 9 -4 5 3 7
14 4 16 -4 19 -2 14 11 -3 9 -1 23 5 30 10 11 7 18 -11 30 -17 12 -19 16 -6
16 9 0 20 5 24 12 4 7 3 8 -4 4 -7 -4 -12 -1 -12 9 0 10 5 13 13 9 8 -5 8 -2
-2 9 -14 17 -26 24 -17 9 2 -4 1 -14 -4 -21 -5 -9 -7 -3 -7 17 1 17 5 28 9 26
8 -5 12 17 8 49 -1 10 4 26 12 35 9 11 10 14 1 8 -9 -5 -13 0 -13 14 0 14 4
19 13 14 8 -5 8 -2 -2 9 -14 18 -26 23 -16 8 3 -5 2 -12 -3 -15 -4 -2 -8 6 -8
19 0 13 4 21 8 19 8 -5 12 16 8 49 -1 10 4 26 12 35 11 13 11 14 -1 7 -11 -6
-13 -3 -9 13 4 12 3 20 -2 17 -4 -3 -10 2 -13 10 -4 9 -1 12 7 9 9 -4 13 3 11
20 -2 14 1 26 6 26 5 0 9 4 9 10 0 5 -6 9 -12 7 -7 -1 -12 3 -11 10 2 12 -21
12 -33 0 -4 -4 -12 -7 -18 -7 -6 0 -4 5 4 10 12 7 12 10 1 10 -7 0 -11 6 -8
15 4 8 1 17 -5 21 -7 5 -8 2 -3 -6 6 -10 4 -12 -9 -7 -10 4 -20 7 -22 7 -2 0
-4 8 -4 17 0 9 -3 13 -6 10 -4 -3 -16 -2 -28 4 -17 8 -16 6 4 -11 l25 -21 -27
12 c-16 7 -28 16 -28 21 0 5 -4 6 -10 3 -5 -3 -10 -1 -10 4 0 6 -4 11 -9 11
-5 0 -7 -10 -5 -22 2 -13 1 -16 -2 -8 -4 8 -12 18 -18 22 -7 5 -6 8 3 8 11 0
10 5 -5 18 -23 21 -62 26 -84 9 -13 -11 -13 -10 -1 6 8 9 11 20 7 24 -3 4 -13
-2 -21 -13 -13 -16 -14 -16 -9 -1 4 11 1 17 -7 17 -11 0 -11 3 1 10 8 5 10 10
5 10 -6 0 -17 -6 -24 -12 -10 -11 -11 -8 -7 15 3 16 1 25 -5 22 -5 -4 -7 -11
-4 -16 4 -5 1 -9 -4 -9 -10 0 -15 14 -12 33 2 11 -14 8 -27 -5 -8 -8 -12 -8
-12 -1 0 6 -7 13 -15 17 -13 5 -13 1 1 -22 l16 -27 -19 23 c-15 18 -21 20 -32
10 -11 -11 -12 -10 -6 1 6 11 4 13 -9 8 -11 -4 -15 -3 -11 4 4 6 13 8 21 5 8
-3 14 -1 14 3 0 9 -24 21 -41 21 -6 0 -7 -5 -3 -12 4 -7 3 -8 -5 -4 -9 6 -9
12 1 24 7 10 9 14 4 10 -13 -11 -48 11 -40 24 4 7 3 8 -4 4 -7 -4 -12 -14 -12
-22 0 -8 -4 -14 -9 -14 -6 0 -8 9 -6 20 2 11 0 18 -5 15 -5 -3 -16 7 -24 22
-8 15 -15 22 -16 14 0 -11 -3 -11 -17 0 -11 10 -14 10 -9 2 4 -7 2 -13 -3 -13
-10 0 -15 14 -12 33 0 4 -4 7 -10 7 -6 0 -9 -6 -6 -13 5 -14 -26 -17 -39 -5
-3 4 -13 4 -22 1 -14 -4 -15 -3 -2 5 10 8 18 8 27 0 7 -6 13 -6 13 -2 0 5 -10
15 -22 23 -19 12 -23 11 -40 -10 -11 -13 -17 -18 -13 -11 4 7 1 19 -5 28 -10
11 -16 12 -28 2 -14 -12 -14 -10 -1 10 l14 22 18 -22 c13 -16 17 -18 13 -6 -2
9 -2 19 2 21 4 2 1 2 -5 1 -7 -2 -13 1 -13 6 0 6 -16 8 -35 5 -26 -3 -34 -1
-28 8 4 7 0 7 -10 -2 -9 -7 -17 -10 -17 -5 0 5 -5 2 -10 -6 -5 -8 -10 -10 -11
-5 0 6 -2 18 -4 28 -2 9 1 15 6 11 5 -3 7 -9 5 -13 -3 -4 1 -8 9 -8 12 0 12 3
3 16 -7 9 -14 18 -15 20 -1 2 -9 -1 -17 -8 -11 -9 -15 -8 -20 5 -3 9 -4 20 -1
24 5 8 -35 5 -64 -6 -12 -4 -12 -2 0 13 12 15 12 16 -3 10 -22 -8 -50 2 -42
14 3 5 -4 9 -15 9 -10 0 -21 6 -24 13 -3 9 -8 8 -23 -3 -18 -14 -18 -14 -5 3
8 9 11 21 7 25 -4 4 -12 -1 -17 -11 -11 -18 -29 -14 -29 6 0 7 4 6 10 -3 5 -8
10 -11 10 -6 0 19 -32 45 -48 38 -15 -5 -15 -4 -3 11 8 10 11 20 7 24 -3 3 -6
1 -6 -7 0 -9 -3 -10 -13 -1 -8 6 -16 8 -19 6 -3 -3 -18 0 -34 6 -16 7 -40 13
-52 14 -13 1 -28 8 -32 15 -7 11 -12 11 -26 -1 -10 -8 -15 -9 -12 -4 4 6 2 17
-3 25 -8 13 -10 13 -19 0 -5 -8 -10 -10 -10 -4 0 5 6 16 13 23 10 10 9 12 -3
9 -8 -2 -21 -10 -30 -18 -8 -9 -11 -10 -6 -3 5 7 5 13 1 13 -4 0 -1 8 6 17 8
9 9 14 3 10 -7 -4 -15 1 -19 11 -6 15 -8 15 -25 -5 -20 -26 -31 -30 -28 -10 2
6 -3 11 -10 9 -8 -1 -11 1 -9 5 3 5 0 19 -7 32 -11 20 -14 21 -19 7 -4 -10 -3
-15 3 -11 6 3 10 2 10 -3 0 -6 -7 -12 -15 -16 -8 -3 -14 0 -12 7 1 7 -3 11
-10 10 -7 -2 -10 3 -7 11 4 11 -2 14 -20 12 -14 -2 -26 1 -26 6 0 5 -12 21
-26 36 -15 15 -24 22 -21 16 4 -6 -9 -10 -34 -10 -36 0 -40 2 -36 22 3 17 0
20 -16 16 -14 -3 -18 -1 -13 6 4 7 1 12 -8 12 -10 0 -13 -7 -11 -20 2 -12 0
-18 -6 -15 -5 4 -7 10 -4 15 6 10 -29 32 -38 24 -9 -9 -19 35 -11 47 4 8 3 9
-5 5 -7 -4 -11 -17 -9 -28 2 -12 -3 -22 -10 -24 -7 -1 -8 0 -2 3 7 3 3 11 -10
20 -12 8 -19 21 -16 29 3 7 0 16 -6 20 -6 4 -8 3 -4 -4 3 -6 2 -13 -4 -17 -5
-3 -10 3 -10 14 0 12 -5 21 -11 21 -5 0 -8 -4 -5 -9 10 -16 -33 -19 -46 -3
-11 13 -11 14 2 7 8 -4 5 3 -8 17 -12 13 -19 27 -16 30 3 4 -1 5 -10 4 -17 -2
-23 -21 -7 -21 20 0 21 -13 1 -18 -11 -3 -18 -1 -15 3 3 5 -2 13 -11 18 -11 6
-13 11 -5 16 6 4 11 12 11 17 0 5 -10 1 -21 -10 -21 -19 -23 -19 -44 -3 -12 9
-20 24 -18 32 4 13 4 13 -6 0 -10 -14 -15 -7 -12 13 1 4 -8 3 -19 -3 -14 -8
-20 -8 -20 0 0 6 -4 8 -10 5 -5 -3 -10 -1 -10 5 0 7 7 10 15 7 8 -4 17 -1 21
5 4 6 3 8 -3 5 -6 -4 -19 0 -29 8 -10 8 -23 15 -28 15 -6 0 -1 -7 10 -15 10
-8 14 -15 7 -15 -7 0 -24 11 -38 24 -22 21 -31 23 -53 15 -25 -10 -25 -9 -9 9
17 18 17 20 0 33 -16 12 -17 12 -6 -1 10 -13 8 -18 -6 -27 -14 -9 -18 -8 -18
3 0 7 5 10 10 7 6 -3 7 -1 3 5 -9 15 -73 16 -78 2 -2 -6 -9 -1 -15 9 -9 15
-10 22 -1 27 6 4 8 3 5 -2 -3 -5 2 -10 12 -10 10 0 18 6 18 12 0 7 -6 10 -12
8 -7 -3 -18 2 -25 10 -7 9 -16 14 -20 11 -5 -3 -11 -1 -15 4 -3 7 -15 7 -30 1
-19 -7 -23 -6 -18 6 4 12 1 13 -21 4 -20 -7 -25 -7 -20 2 5 8 2 9 -10 5 -10
-4 -15 -3 -11 4 4 5 15 7 26 4 10 -4 19 -3 19 2 0 5 -12 10 -27 11 -15 1 -30
7 -34 14 -6 9 -11 8 -24 -2 -14 -11 -16 -11 -13 1 2 9 -6 14 -24 13 -15 0 -25
3 -23 6 6 9 -33 50 -46 50 -6 0 -7 5 -3 12 4 6 3 8 -2 5 -6 -3 -16 -2 -23 2
-7 5 -28 5 -47 1 -18 -4 -33 -5 -32 -1 3 25 -4 32 -24 26 -19 -6 -21 -5 -10 6
15 17 16 30 0 27 -7 -2 -12 2 -13 9 0 6 -4 15 -9 20 -5 4 -6 3 -2 -4 11 -20
-11 -24 -30 -6 -17 17 -18 17 -11 1 3 -10 2 -18 -2 -18 -5 0 -11 5 -13 12 -2
6 -12 12 -22 14 -13 2 -16 -2 -11 -14 5 -14 4 -15 -7 -4 -11 11 -10 16 5 27
12 8 14 15 8 20 -6 3 -11 1 -11 -5 0 -7 -7 -10 -15 -6 -8 3 -15 0 -15 -6 0 -6
-2 -9 -5 -6 -10 10 7 38 19 31 6 -3 7 -2 3 2 -12 14 -38 15 -31 2 3 -7 -2 -3
-12 8 -14 17 -16 17 -11 3 4 -10 4 -18 0 -18 -3 0 -12 8 -20 18 -8 9 -12 11
-8 5 3 -7 1 -13 -4 -13 -6 0 -11 5 -11 11 0 5 -4 7 -10 4 -5 -3 -10 0 -10 8 0
8 -7 18 -16 21 -22 8 -26 8 -19 -4 3 -6 -1 -7 -9 -4 -9 3 -16 10 -16 16 0 5 4
7 9 4 5 -3 14 0 20 8 9 11 6 12 -16 8 -16 -2 -34 -9 -40 -14 -9 -7 -15 -6 -19
5 -3 9 -14 14 -26 12 -11 -3 -18 -2 -15 1 11 11 -17 32 -30 23 -7 -7 -14 -6
-19 2 -4 7 -3 9 4 5 6 -3 14 -1 17 5 5 7 15 3 31 -12 13 -12 24 -18 24 -12 0
6 -7 14 -16 17 -8 3 -12 11 -8 17 4 8 3 9 -4 5 -7 -4 -12 -1 -12 8 0 9 -4 16
-10 16 -5 0 -7 -7 -4 -15 5 -11 2 -13 -10 -9 -9 3 -13 11 -9 18 4 6 -1 5 -10
-3 -10 -8 -17 -9 -17 -3 0 12 -38 27 -57 24 -7 -2 -10 3 -7 11 3 8 -1 17 -9
20 -11 4 -13 0 -10 -14 3 -11 0 -19 -6 -19 -7 0 -10 4 -7 9 8 13 -4 41 -17 41
-6 0 -19 8 -30 18 -11 9 -18 12 -14 7 3 -6 -3 -16 -13 -23 -27 -17 -47 9 -25
32 9 9 13 16 8 16 -5 0 -14 -5 -21 -12 -20 -20 -40 -18 -35 3 3 10 11 19 19
19 7 0 16 5 20 12 4 6 3 8 -3 5 -5 -3 -24 -9 -42 -12 -24 -4 -31 -2 -25 6 5 8
3 9 -7 3 -23 -14 -39 -13 -39 3 0 13 2 14 18 2 15 -13 16 -12 3 3 -7 10 -17
16 -21 13 -5 -3 -12 -1 -15 5 -4 6 -16 8 -28 4 -20 -6 -20 -5 -8 10 8 9 11 19
7 23 -3 3 -6 0 -6 -8 0 -11 -2 -11 -10 1 -6 10 -10 11 -10 3 0 -7 -5 -13 -11
-13 -5 0 -7 5 -4 10 3 6 1 11 -4 11 -6 1 -17 2 -23 3 -7 1 -19 -5 -26 -14 -10
-13 -11 -13 -6 4 9 24 -14 38 -40 25 -19 -9 -19 -9 -4 4 21 17 11 31 -26 34
-15 1 -34 10 -41 20 -7 10 -19 18 -27 18 -7 1 -12 6 -11 12 1 6 -5 10 -15 9
-9 0 -16 4 -15 9 2 14 -35 17 -57 5 -11 -6 -21 -5 -28 2 -9 9 -12 9 -12 0 0
-7 -5 -12 -11 -12 -5 0 -8 4 -5 9 3 4 -3 16 -14 26 -11 10 -17 22 -13 27 10
17 -19 27 -41 16 -20 -11 -20 -10 -6 7 8 10 10 16 3 12 -7 -5 -23 -1 -36 8
-13 8 -27 12 -30 8 -4 -3 -7 -1 -7 5 0 6 -7 9 -17 5 -11 -4 -14 -3 -9 5 5 8
-1 12 -15 12 -19 0 -20 -2 -8 -17 13 -17 12 -17 -4 -4 -18 15 -18 15 0 29 19
16 22 16 -34 -4 -15 -5 -14 -4 2 9 19 15 19 15 -8 10 -15 -3 -25 -9 -22 -12 2
-4 -2 -8 -9 -8 -7 0 -13 6 -13 13 0 7 3 11 7 9 3 -2 11 5 18 15 9 14 9 21 0
26 -7 4 -8 3 -4 -5 4 -6 0 -14 -10 -18 -10 -4 -19 -2 -22 5 -2 7 -8 10 -13 7
-5 -4 -6 2 -2 12 6 16 5 16 -10 5 -14 -12 -16 -11 -12 8 3 18 2 20 -10 10 -8
-7 -15 -9 -15 -5 0 4 -6 2 -14 -4 -12 -10 -17 -8 -27 11 -7 13 -12 30 -11 38
1 10 -1 11 -4 3 -3 -7 -15 -13 -25 -13 -11 0 -17 5 -14 10 3 6 1 11 -4 11 -6
1 -17 2 -23 3 -7 1 -18 -5 -25 -14 -10 -13 -11 -11 -6 8 3 15 1 22 -8 22 -11
0 -11 2 1 10 9 6 10 10 3 10 -6 0 -15 -5 -18 -10 -4 -6 -11 -7 -18 -3 -23 14
-67 9 -84 -9z m89 0 c36 -8 25 -13 -28 -13 -38 0 -58 -5 -64 -15 -5 -8 -10
-11 -10 -6 0 5 7 17 15 26 14 15 40 18 87 8z m78 -28 c0 -5 -5 -10 -11 -10 -5
0 -7 5 -4 10 3 6 8 10 11 10 2 0 4 -4 4 -10z m58 -45 c-3 -3 -9 2 -12 12 -6
14 -5 15 5 6 7 -7 10 -15 7 -18z m65 -18 c-3 -5 1 -13 8 -18 10 -6 10 -9 2 -9
-7 0 -17 8 -22 18 -7 14 -6 19 4 19 8 0 11 -5 8 -10z m239 -115 c5 -5 2 -14
-9 -23 -17 -13 -17 -13 -3 5 14 18 13 19 -2 14 -9 -4 -24 -1 -34 7 -16 11 -15
12 10 10 16 -2 33 -8 38 -13z m-921 -25 c-13 -13 -26 -3 -16 12 3 6 11 8 17 5
6 -4 6 -10 -1 -17z m979 -2 c0 -8 -4 -15 -10 -15 -5 0 -7 7 -4 15 4 8 8 15 10
15 2 0 4 -7 4 -15z m147 -80 c2 -17 1 -18 -3 -2 -4 13 -12 17 -25 14 -11 -3
-16 -1 -13 4 10 17 39 5 41 -16z m33 -15 c0 -5 -4 -10 -10 -10 -5 0 -10 5 -10
10 0 6 5 10 10 10 6 0 10 -4 10 -10z m40 -26 c0 -8 -4 -14 -10 -14 -5 0 -6 7
-3 17 5 12 3 14 -7 8 -9 -5 -11 -4 -6 4 9 14 26 5 26 -15z m157 -79 c0 -8 -4
-12 -9 -9 -5 3 -6 10 -3 15 9 13 12 11 12 -6z m87 -50 c-4 -8 -11 -12 -17 -8
-8 5 -7 8 1 11 7 2 9 9 6 14 -4 7 -2 8 4 4 6 -4 9 -13 6 -21z m-2119 -81 c-15
-16 -25 -22 -23 -14 3 14 40 51 46 45 2 -1 -9 -16 -23 -31z m2324 -7 c0 -9 -2
-8 -6 1 -2 6 -10 9 -15 6 -7 -4 -8 -2 -4 5 9 13 26 5 25 -12z m12 -20 c-10 -9
-11 -8 -5 6 3 10 9 15 12 12 3 -3 0 -11 -7 -18z m109 -43 c0 -3 -5 -2 -10 1
-6 4 -19 1 -28 -7 -15 -11 -15 -11 -5 3 7 9 9 19 5 24 -4 4 3 2 16 -4 12 -6
22 -14 22 -17z m-50 10 c0 -8 -19 -13 -24 -6 -3 5 1 9 9 9 8 0 15 -2 15 -3z
m-3005 -244 c3 -18 2 -20 -10 -10 -8 6 -11 18 -8 26 7 18 12 13 18 -16z m3520
20 c3 -5 1 -10 -4 -10 -6 0 -11 5 -11 10 0 6 2 10 4 10 3 0 8 -4 11 -10z
m-3627 -75 c-3 -3 -9 2 -12 12 -6 14 -5 15 5 6 7 -7 10 -15 7 -18z m3752 4 c0
-5 -4 -9 -8 -9 -5 0 -9 7 -9 15 0 8 4 12 9 9 4 -3 8 -9 8 -15z m-3780 1 c0 -5
-5 -10 -11 -10 -5 0 -7 5 -4 10 3 6 8 10 11 10 2 0 4 -4 4 -10z m3837 -37 c2
-6 -4 -13 -13 -17 -14 -5 -15 -4 -4 9 11 14 10 17 -8 22 -12 3 -22 10 -22 15
0 12 42 -14 47 -29z m-3847 10 c0 -3 -7 -2 -16 1 -11 4 -15 2 -11 -8 4 -10 1
-13 -9 -9 -11 4 -12 9 -4 19 10 11 40 9 40 -3z m-153 -63 c-1 -12 -5 -16 -10
-11 -5 5 -6 14 -3 20 11 16 15 13 13 -9z m4097 2 c3 -5 -1 -9 -9 -9 -8 0 -12
4 -9 9 3 4 7 8 9 8 2 0 6 -4 9 -8z m-4168 -34 c4 -7 3 -8 -4 -4 -7 4 -12 2
-12 -5 0 -7 -3 -10 -6 -6 -6 5 3 27 11 27 2 0 7 -5 11 -12z m4305 -51 c-9 -9
-10 -7 -5 7 6 15 4 17 -6 11 -9 -5 -11 -4 -6 3 4 7 2 12 -4 12 -6 0 -8 5 -5
11 5 6 13 2 22 -11 12 -17 13 -24 4 -33z m-4491 -57 c0 -5 -2 -10 -4 -10 -3 0
-8 5 -11 10 -3 6 -1 10 4 10 6 0 11 -4 11 -10z m4690 -22 c0 -5 -7 -3 -15 6
-8 8 -15 18 -15 22 0 3 7 1 15 -6 8 -7 15 -17 15 -22z m104 -56 c3 -5 -1 -9
-9 -9 -8 0 -15 4 -15 9 0 4 4 8 9 8 6 0 12 -4 15 -8z m-5070 -30 c3 -5 -1 -9
-9 -9 -8 0 -12 4 -9 9 3 4 7 8 9 8 2 0 6 -4 9 -8z m5222 -42 c0 -12 -4 -16 -9
-11 -5 5 -6 14 -3 20 10 15 12 14 12 -9z m354 -177 c0 -2 -10 2 -22 9 -13 7
-27 11 -31 10 -5 -1 -6 2 -2 8 5 9 55 -15 55 -27z m-5970 -8 c0 -2 -6 -8 -13
-14 -10 -8 -14 -7 -14 2 0 8 6 14 14 14 7 0 13 -1 13 -2z m6163 -58 c3 -8 1
-20 -5 -28 -8 -11 -9 -10 -4 4 3 9 1 17 -5 17 -6 0 -7 5 -4 10 8 13 12 13 18
-3z m172 -99 c4 -3 2 -9 -3 -12 -5 -3 -15 1 -21 8 -10 11 -9 14 3 12 9 -1 18
-5 21 -8z m70 -18 c3 -5 1 -10 -4 -10 -6 0 -11 5 -11 10 0 6 2 10 4 10 3 0 8
-4 11 -10z m39 -29 c3 -5 -1 -11 -9 -15 -8 -3 -17 0 -21 6 -4 7 -3 8 4 4 7 -4
12 -2 12 3 0 13 7 14 14 2z m-6987 -35 c0 -8 -3 -15 -6 -14 -25 2 -41 -5 -46
-23 -4 -11 -9 -19 -11 -16 -13 13 16 44 62 67 0 0 1 -6 1 -14z m33 4 c0 -5 -5
-10 -11 -10 -5 0 -7 5 -4 10 3 6 8 10 11 10 2 0 4 -4 4 -10z m7151 -83 c-10
-9 -11 -8 -5 6 3 10 9 15 12 12 3 -3 0 -11 -7 -18z m-7451 -67 c0 -5 -4 -10
-10 -10 -5 0 -10 5 -10 10 0 6 5 10 10 10 6 0 10 -4 10 -10z m-80 -44 c0 -3
-4 -8 -10 -11 -5 -3 -10 -1 -10 4 0 6 5 11 10 11 6 0 10 -2 10 -4z m7815 -44
c-3 -3 -11 0 -18 7 -9 10 -8 11 6 5 10 -3 15 -9 12 -12z m55 6 c0 -4 0 -11 -1
-14 0 -4 5 -11 13 -16 10 -8 10 -9 -2 -5 -8 2 -14 10 -12 16 1 6 -5 11 -13 11
-8 0 -15 4 -15 8 0 5 7 9 15 9 8 0 15 -4 15 -9z m373 -191 c3 -8 -1 -14 -9
-14 -15 0 -18 9 -7 20 9 9 10 9 16 -6z m-8763 -27 c0 -5 -4 -10 -10 -10 -5 0
-10 5 -10 10 0 6 5 10 10 10 6 0 10 -4 10 -10z m-106 -38 c2 -4 -5 -9 -17 -9
-17 -2 -19 0 -7 7 18 12 18 12 24 2z m-54 -40 c0 -5 -7 -9 -15 -9 -8 0 -12 4
-9 9 3 4 9 8 15 8 5 0 9 -4 9 -8z m9148 -15 c8 -10 6 -13 -11 -14 -12 0 -16 1
-9 4 6 3 10 9 6 14 -8 14 2 11 14 -4z m-9194 -168 c-3 -5 -10 -7 -15 -3 -5 3
-7 10 -3 15 3 5 10 7 15 3 5 -3 7 -10 3 -15z m9201 2 c3 -5 2 -12 -3 -15 -5
-3 -9 1 -9 9 0 17 3 19 12 6z m-9200 -78 c-2 -10 -4 -19 -4 -21 -1 -2 -6 0
-11 3 -8 5 -7 11 1 21 15 18 18 18 14 -3z m9200 -82 c3 -5 2 -12 -3 -15 -5 -3
-9 1 -9 9 0 17 3 19 12 6z m-9200 -61 c3 -6 -1 -7 -9 -4 -18 7 -21 14 -7 14 6
0 13 -4 16 -10z m9215 -84 c0 -11 -19 -15 -25 -6 -3 5 1 10 9 10 9 0 16 -2 16
-4z m-13 -121 c0 -8 -4 -12 -9 -9 -5 3 -6 10 -3 15 9 13 12 11 12 -6z m0 -62
c0 -9 -4 -10 -14 -2 -7 6 -13 12 -13 14 0 1 6 2 13 2 8 0 14 -6 14 -14z m3
-31 c0 -5 -7 -9 -15 -9 -8 0 -12 4 -9 9 3 4 9 8 15 8 5 0 9 -4 9 -8z m-5 -121
c3 -5 2 -12 -3 -15 -5 -3 -9 1 -9 9 0 17 3 19 12 6z m-9200 -61 c3 -6 -1 -7
-9 -4 -18 7 -21 14 -7 14 6 0 13 -4 16 -10z m9200 -99 c3 -5 2 -12 -3 -15 -5
-3 -9 1 -9 9 0 17 3 19 12 6z m15 -145 c0 -11 -19 -15 -25 -6 -3 5 1 10 9 10
9 0 16 -2 16 -4z m-13 -121 c0 -8 -4 -12 -9 -9 -5 3 -6 10 -3 15 9 13 12 11
12 -6z m0 -62 c0 -9 -4 -10 -14 -2 -7 6 -13 12 -13 14 0 1 6 2 13 2 8 0 14 -6
14 -14z m3 -31 c0 -5 -7 -9 -15 -9 -8 0 -12 4 -9 9 3 4 9 8 15 8 5 0 9 -4 9
-8z m-9205 -22 c3 -6 -1 -7 -9 -4 -18 7 -21 14 -7 14 6 0 13 -4 16 -10z m9200
-99 c3 -5 2 -12 -3 -15 -5 -3 -9 1 -9 9 0 17 3 19 12 6z m-9191 -143 c-3 -4
-11 -5 -19 -1 -21 7 -19 12 4 10 11 0 18 -5 15 -9z m9191 -17 c3 -5 2 -12 -3
-15 -5 -3 -9 1 -9 9 0 17 3 19 12 6z m-9195 -41 c0 -5 -7 -7 -15 -4 -8 4 -15
8 -15 10 0 2 7 4 15 4 8 0 15 -4 15 -10z m4 -102 c-3 -4 -11 -5 -19 -1 -21 7
-19 12 4 10 11 0 18 -5 15 -9z m9206 -2 c0 -11 -19 -15 -25 -6 -3 5 1 10 9 10
9 0 16 -2 16 -4z m-9210 -56 c0 -5 -7 -7 -15 -4 -8 4 -15 8 -15 10 0 2 7 4 15
4 8 0 15 -4 15 -10z m9197 -65 c0 -8 -4 -12 -9 -9 -5 3 -6 10 -3 15 9 13 12
11 12 -6z m-9193 -37 c-3 -4 -11 -5 -19 -1 -21 7 -19 12 4 10 11 0 18 -5 15
-9z m9193 -25 c0 -9 -4 -10 -14 -2 -7 6 -13 12 -13 14 0 1 6 2 13 2 8 0 14 -6
14 -14z m-9197 -33 c0 -5 -7 -7 -15 -4 -8 4 -15 8 -15 10 0 2 7 4 15 4 8 0 15
-4 15 -10z m9200 2 c0 -5 -7 -9 -15 -9 -8 0 -12 4 -9 9 3 4 9 8 15 8 5 0 9 -4
9 -8z m-9196 -104 c-3 -4 -11 -5 -19 -1 -21 7 -19 12 4 10 11 0 18 -5 15 -9z
m9191 -17 c3 -5 2 -12 -3 -15 -5 -3 -9 1 -9 9 0 17 3 19 12 6z m-9195 -41 c0
-5 -7 -7 -15 -4 -8 4 -15 8 -15 10 0 2 7 4 15 4 8 0 15 -4 15 -10z m-6 -50
c-6 -6 -10 -3 -10 10 0 13 4 16 10 10 7 -7 7 -13 0 -20z m9201 -69 c3 -5 2
-12 -3 -15 -5 -3 -9 1 -9 9 0 17 3 19 12 6z m-9200 -61 c3 -6 -1 -7 -9 -4 -18
7 -21 14 -7 14 6 0 13 -4 16 -10z m9215 -84 c0 -11 -19 -15 -25 -6 -3 5 1 10
9 10 9 0 16 -2 16 -4z m-13 -121 c0 -8 -4 -12 -9 -9 -5 3 -6 10 -3 15 9 13 12
11 12 -6z m0 -62 c0 -9 -4 -10 -14 -2 -7 6 -13 12 -13 14 0 1 6 2 13 2 8 0 14
-6 14 -14z m3 -31 c0 -5 -7 -9 -15 -9 -8 0 -12 4 -9 9 3 4 9 8 15 8 5 0 9 -4
9 -8z m-5 -121 c3 -5 2 -12 -3 -15 -5 -3 -9 1 -9 9 0 17 3 19 12 6z m-9200
-61 c3 -6 -1 -7 -9 -4 -18 7 -21 14 -7 14 6 0 13 -4 16 -10z m9200 -99 c3 -5
2 -12 -3 -15 -5 -3 -9 1 -9 9 0 17 3 19 12 6z m15 -145 c0 -11 -19 -15 -25 -6
-3 5 1 10 9 10 9 0 16 -2 16 -4z m-13 -121 c0 -8 -4 -12 -9 -9 -5 3 -6 10 -3
15 9 13 12 11 12 -6z m0 -62 c0 -9 -4 -10 -14 -2 -7 6 -13 12 -13 14 0 1 6 2
13 2 8 0 14 -6 14 -14z m3 -31 c0 -5 -7 -9 -15 -9 -8 0 -12 4 -9 9 3 4 9 8 15
8 5 0 9 -4 9 -8z m-9205 -22 c3 -6 -1 -7 -9 -4 -18 7 -21 14 -7 14 6 0 13 -4
16 -10z m9200 -99 c3 -5 2 -12 -3 -15 -5 -3 -9 1 -9 9 0 17 3 19 12 6z m-9191
-143 c-3 -4 -11 -5 -19 -1 -21 7 -19 12 4 10 11 0 18 -5 15 -9z m9191 -17 c3
-5 2 -12 -3 -15 -5 -3 -9 1 -9 9 0 17 3 19 12 6z m-9195 -41 c0 -5 -7 -7 -15
-4 -8 4 -15 8 -15 10 0 2 7 4 15 4 8 0 15 -4 15 -10z m4 -102 c-3 -4 -11 -5
-19 -1 -21 7 -19 12 4 10 11 0 18 -5 15 -9z m9206 -2 c0 -11 -19 -15 -25 -6
-3 5 1 10 9 10 9 0 16 -2 16 -4z m-9210 -56 c0 -5 -7 -7 -15 -4 -8 4 -15 8
-15 10 0 2 7 4 15 4 8 0 15 -4 15 -10z m9197 -65 c0 -8 -4 -12 -9 -9 -5 3 -6
10 -3 15 9 13 12 11 12 -6z m-9193 -37 c-3 -4 -11 -5 -19 -1 -21 7 -19 12 4
10 11 0 18 -5 15 -9z m9193 -25 c0 -9 -4 -10 -14 -2 -7 6 -13 12 -13 14 0 1 6
2 13 2 8 0 14 -6 14 -14z m-9197 -33 c0 -5 -7 -7 -15 -4 -8 4 -15 8 -15 10 0
2 7 4 15 4 8 0 15 -4 15 -10z m9200 2 c0 -5 -7 -9 -15 -9 -8 0 -12 4 -9 9 3 4
9 8 15 8 5 0 9 -4 9 -8z m-9196 -104 c-3 -4 -11 -5 -19 -1 -21 7 -19 12 4 10
11 0 18 -5 15 -9z m9191 -17 c3 -5 2 -12 -3 -15 -5 -3 -9 1 -9 9 0 17 3 19 12
6z m-9195 -41 c0 -5 -7 -7 -15 -4 -8 4 -15 8 -15 10 0 2 7 4 15 4 8 0 15 -4
15 -10z m-6 -50 c-6 -6 -10 -3 -10 10 0 13 4 16 10 10 7 -7 7 -13 0 -20z
m9201 -69 c3 -5 2 -12 -3 -15 -5 -3 -9 1 -9 9 0 17 3 19 12 6z m-9200 -61 c3
-6 -1 -7 -9 -4 -18 7 -21 14 -7 14 6 0 13 -4 16 -10z m9215 -84 c0 -11 -19
-15 -25 -6 -3 5 1 10 9 10 9 0 16 -2 16 -4z m-13 -121 c0 -8 -4 -12 -9 -9 -5
3 -6 10 -3 15 9 13 12 11 12 -6z m0 -62 c0 -9 -4 -10 -14 -2 -7 6 -13 12 -13
14 0 1 6 2 13 2 8 0 14 -6 14 -14z m3 -31 c0 -5 -7 -9 -15 -9 -8 0 -12 4 -9 9
3 4 9 8 15 8 5 0 9 -4 9 -8z m-5 -121 c3 -5 2 -12 -3 -15 -5 -3 -9 1 -9 9 0
17 3 19 12 6z m-9200 -61 c3 -6 -1 -7 -9 -4 -18 7 -21 14 -7 14 6 0 13 -4 16
-10z m9200 -99 c3 -5 2 -12 -3 -15 -5 -3 -9 1 -9 9 0 17 3 19 12 6z m15 -145
c0 -11 -19 -15 -25 -6 -3 5 1 10 9 10 9 0 16 -2 16 -4z m-13 -121 c0 -8 -4
-12 -9 -9 -5 3 -6 10 -3 15 9 13 12 11 12 -6z m0 -62 c0 -9 -4 -10 -14 -2 -7
6 -13 12 -13 14 0 1 6 2 13 2 8 0 14 -6 14 -14z m3 -31 c0 -5 -7 -9 -15 -9 -8
0 -12 4 -9 9 3 4 9 8 15 8 5 0 9 -4 9 -8z m-9205 -22 c3 -6 -1 -7 -9 -4 -18 7
-21 14 -7 14 6 0 13 -4 16 -10z m9200 -99 c3 -5 2 -12 -3 -15 -5 -3 -9 1 -9 9
0 17 3 19 12 6z m-80 -281 c3 -5 1 -10 -4 -10 -6 0 -11 5 -11 10 0 6 2 10 4
10 3 0 8 -4 11 -10z m-8918 -82 c-3 -8 -6 -5 -6 6 -1 11 2 17 5 13 3 -3 4 -12
1 -19z m123 -58 c0 -5 -2 -10 -4 -10 -3 0 -8 5 -11 10 -3 6 -1 10 4 10 6 0 11
-4 11 -10z m174 -95 c-4 -8 -8 -15 -10 -15 -2 0 -4 7 -4 15 0 8 4 15 10 15 5
0 7 -7 4 -15z m8081 -66 c-3 -4 -13 -5 -22 -2 -11 4 -13 8 -5 11 7 2 9 9 5 15
-4 7 1 6 10 -2 9 -7 14 -17 12 -22z m-7890 -18 c-9 -8 -36 -10 -30 -2 2 4 11
8 20 8 8 0 13 -3 10 -6z m7715 -62 c0 -15 -18 -19 -23 -6 -3 8 1 14 9 14 8 0
14 -4 14 -8z m-7476 -37 c2 -4 -5 -9 -17 -9 -17 -2 -19 0 -7 7 18 12 18 12 24
2z m110 -83 c-3 -5 -10 -7 -15 -3 -5 3 -7 10 -3 15 3 5 10 7 15 3 5 -3 7 -10
3 -15z m94 -34 c-3 -3 -9 2 -12 12 -6 14 -5 15 5 6 7 -7 10 -15 7 -18z m206
-115 c-6 -6 -10 -3 -10 10 0 13 4 16 10 10 7 -7 7 -13 0 -20z m6406 -30 c0 -5
-5 -10 -11 -10 -5 0 -7 5 -4 10 3 6 8 10 11 10 2 0 4 -4 4 -10z m-6280 -14 c0
-2 -7 -7 -16 -10 -8 -3 -12 -2 -9 4 6 10 25 14 25 6z m154 -64 c3 -5 -1 -9 -9
-9 -8 0 -12 4 -9 9 3 4 7 8 9 8 2 0 6 -4 9 -8z m5871 -54 c-1 -13 -5 -22 -8
-20 -4 1 -11 2 -17 2 -5 0 -2 9 7 20 21 24 20 25 18 -2z m-5725 -54 c0 -3 -7
-1 -15 6 -8 7 -15 17 -15 22 0 5 7 3 15 -6 8 -8 15 -18 15 -22z m5600 -4 c0
-5 -5 -10 -11 -10 -5 0 -7 5 -4 10 3 6 8 10 11 10 2 0 4 -4 4 -10z m-280 -155
c0 -1 -7 -8 -15 -15 -13 -11 -14 -10 -9 5 6 14 4 16 -6 10 -8 -5 -11 -4 -6 3
5 9 36 7 36 -3z m-104 -50 c-3 -20 -16 -31 -16 -13 0 13 8 28 16 28 1 0 1 -7
0 -15z m-33 -8 c4 3 7 4 7 1 0 -3 -8 -12 -17 -19 -10 -7 -15 -9 -11 -5 4 5 2
16 -5 25 -10 14 -10 14 4 4 9 -7 19 -10 22 -6z m-4622 -50 c-10 -9 -11 -8 -5
6 3 10 9 15 12 12 3 -3 0 -11 -7 -18z m74 -17 c3 -6 -1 -7 -9 -4 -18 7 -21 14
-7 14 6 0 13 -4 16 -10z m69 -52 c-3 -4 -11 -5 -19 -1 -21 7 -19 12 4 10 11 0
18 -5 15 -9z m76 -19 c0 -10 -27 -19 -34 -12 -12 12 -5 22 14 20 11 -1 20 -4
20 -8z m4000 -53 c0 -2 -7 -7 -16 -10 -8 -3 -12 -2 -9 4 6 10 25 14 25 6z
m-31 -35 c7 -5 9 -11 5 -14 -5 -3 -15 1 -22 9 -14 16 -5 18 17 5z m-3787 -33
c-8 -8 -9 -4 -5 13 4 13 8 18 11 10 2 -7 -1 -18 -6 -23z m38 8 c0 -3 -4 -8
-10 -11 -5 -3 -10 -1 -10 4 0 6 5 11 10 11 6 0 10 -2 10 -4z m51 -49 c-10 -9
-11 -8 -5 6 3 10 9 15 12 12 3 -3 0 -11 -7 -18z m121 -36 c8 11 9 11 6 1 -4
-16 -22 -18 -24 -3 -2 8 -1 7 3 0 4 -8 8 -7 15 2z m3224 -46 c-1 -8 -5 -17 -8
-21 -5 -4 -4 16 1 34 3 9 9 -1 7 -13z m-53 -29 c7 -18 -18 -42 -28 -26 -4 6
-1 9 7 8 8 -2 12 4 10 15 -3 21 4 23 11 3z m-43 -26 c0 -5 -5 -10 -11 -10 -5
0 -7 5 -4 10 3 6 8 10 11 10 2 0 4 -4 4 -10z m-2843 -45 c0 -8 -4 -12 -9 -9
-5 3 -6 10 -3 15 9 13 12 11 12 -6z m233 -120 c-7 -8 -16 -12 -21 -9 -16 9
-10 20 12 21 17 2 18 -1 9 -12z m2310 11 c0 -2 -7 -7 -16 -10 -8 -3 -12 -2 -9
4 6 10 25 14 25 6z m-2248 -30 c7 5 8 2 3 -6 -6 -10 -3 -12 11 -7 19 7 19 7 0
-8 -23 -18 -48 -3 -39 23 4 10 8 12 11 4 2 -7 9 -9 14 -6z m2148 -16 c0 -5 -5
-10 -11 -10 -5 0 -7 5 -4 10 3 6 8 10 11 10 2 0 4 -4 4 -10z m-185 -88 c-3 -3
-11 0 -18 7 -9 10 -8 11 6 5 10 -3 15 -9 12 -12z m-1525 -116 c-7 -7 -13 -7
-20 0 -6 6 -3 10 10 10 13 0 16 -4 10 -10z m60 -20 c0 -2 -7 -6 -15 -10 -8 -3
-15 -1 -15 4 0 6 7 10 15 10 8 0 15 -2 15 -4z m59 -48 c-11 -21 -15 -22 -25
-6 -5 7 -3 8 6 3 9 -6 12 -4 8 7 -4 8 0 15 7 15 10 0 11 -5 4 -19z m934 -52
c4 -10 1 -13 -8 -9 -8 3 -12 9 -9 14 7 12 11 11 17 -5z m-689 -58 c-5 -8 -2
-9 11 -4 15 5 16 4 5 -9 -8 -10 -9 -15 -1 -15 6 0 11 -6 11 -12 -1 -7 -10 -2
-20 11 -22 26 -25 41 -9 41 5 0 7 -5 3 -12z m55 -34 c4 3 8 -1 8 -9 0 -11 -4
-12 -14 -4 -7 6 -13 17 -12 23 0 7 2 6 6 -2 2 -6 8 -10 12 -8z m102 -31 c13
-16 12 -17 -3 -4 -17 13 -22 21 -14 21 2 0 10 -8 17 -17z m19 -37 c0 -10 -30
0 -34 11 -4 11 -1 11 14 3 11 -6 20 -12 20 -14z"/>
<path d="M4780 10043 c0 -19 14 -22 35 -7 10 8 14 14 8 14 -7 0 -15 -5 -19
-11 -4 -8 -9 -7 -15 2 -6 10 -9 10 -9 2z"/>
<path d="M4704 9992 c4 -3 14 -7 22 -8 9 -1 13 0 10 4 -4 3 -14 7 -22 8 -9 1
-13 0 -10 -4z"/>
<path d="M5705 9930 c10 -11 20 -18 23 -15 3 3 11 0 17 -5 9 -7 17 -5 26 7 12
16 12 17 -1 7 -11 -9 -18 -9 -27 1 -6 7 -9 17 -5 21 4 5 -1 2 -10 -5 -12 -9
-18 -10 -18 -2 0 6 -5 11 -12 11 -6 0 -3 -9 7 -20z"/>
<path d="M5924 9838 c10 -6 22 -6 26 -2 5 5 -3 10 -18 11 -22 1 -24 0 -8 -9z"/>
<path d="M5990 9821 c0 -6 4 -13 10 -16 6 -3 7 1 4 9 -7 18 -14 21 -14 7z"/>
<path d="M6025 9800 c-3 -6 1 -7 9 -4 18 7 21 14 7 14 -6 0 -13 -4 -16 -10z"/>
<path d="M4202 9750 c-6 -11 -12 -23 -12 -27 0 -5 5 0 11 10 6 9 14 15 20 12
5 -3 6 1 3 9 -8 20 -7 20 -22 -4z"/>
<path d="M6275 9651 c-3 -5 -1 -12 5 -16 5 -3 10 1 10 9 0 18 -6 21 -15 7z"/>
<path d="M3860 9575 c13 -16 30 -11 30 8 0 7 -4 6 -10 -3 -6 -10 -10 -11 -10
-2 0 6 -5 12 -11 12 -8 0 -8 -5 1 -15z"/>
<path d="M6581 9523 c-2 -20 11 -43 20 -37 5 3 9 10 9 15 0 6 -4 8 -9 4 -5 -3
-12 3 -14 12 -3 10 -5 13 -6 6z"/>
<path d="M3415 9360 c-3 -5 -1 -10 4 -10 6 0 11 5 11 10 0 6 -2 10 -4 10 -3 0
-8 -4 -11 -10z"/>
<path d="M3316 9311 c-4 -5 -2 -12 3 -15 5 -4 12 -2 15 3 4 5 2 12 -3 15 -5 4
-12 2 -15 -3z"/>
<path d="M6995 9310 c-3 -5 -1 -10 4 -10 6 0 11 5 11 10 0 6 -2 10 -4 10 -3 0
-8 -4 -11 -10z"/>
<path d="M7159 9233 c-13 -16 -12 -17 4 -4 9 7 17 15 17 17 0 8 -8 3 -21 -13z"/>
<path d="M2840 9091 c0 -6 4 -13 10 -16 6 -3 7 1 4 9 -7 18 -14 21 -14 7z"/>
<path d="M7690 8962 c6 -13 14 -21 18 -18 3 4 -2 14 -12 24 -18 16 -18 16 -6
-6z"/>
<path d="M7826 8893 c-6 -14 -5 -15 5 -6 7 7 10 15 7 18 -3 3 -9 -2 -12 -12z"/>
<path d="M7905 8861 c-3 -5 -2 -12 3 -15 5 -3 9 1 9 9 0 17 -3 19 -12 6z"/>
<path d="M7986 8818 c3 -5 10 -6 15 -3 13 9 11 12 -6 12 -8 0 -12 -4 -9 -9z"/>
<path d="M8065 8770 c-3 -6 1 -7 9 -4 18 7 21 14 7 14 -6 0 -13 -4 -16 -10z"/>
<path d="M8290 8676 c0 -8 4 -17 9 -21 6 -3 9 4 8 15 -1 23 -17 28 -17 6z"/>
<path d="M8417 8624 c-9 -9 4 -35 14 -28 6 3 16 0 24 -6 8 -7 20 -10 27 -7 8
3 6 6 -5 6 -10 1 -15 6 -12 11 4 6 3 10 -2 9 -22 -4 -43 2 -38 11 7 11 2 14
-8 4z"/>
<path d="M1774 8555 c-4 -8 -12 -15 -20 -15 -8 0 -14 -4 -14 -10 0 -6 9 -6 23
1 13 6 24 17 24 25 0 18 -6 18 -13 -1z"/>
<path d="M1676 8513 c-6 -14 -5 -15 5 -6 7 7 10 15 7 18 -3 3 -9 -2 -12 -12z"/>
<path d="M8711 8474 c0 -11 3 -14 6 -6 3 7 2 16 -1 19 -3 4 -6 -2 -5 -13z"/>
<path d="M1545 8460 c-3 -6 1 -7 9 -4 18 7 21 14 7 14 -6 0 -13 -4 -16 -10z"/>
<path d="M1290 8321 c0 -5 7 -11 14 -14 10 -4 13 -1 9 9 -6 15 -23 19 -23 5z"/>
<path d="M9296 8202 c-3 -5 1 -9 9 -9 8 0 12 4 9 9 -3 4 -7 8 -9 8 -2 0 -6 -4
-9 -8z"/>
<path d="M970 8160 c-6 -11 -16 -17 -22 -14 -7 4 -8 3 -4 -5 4 -6 12 -9 17 -6
11 7 32 45 25 45 -3 0 -10 -9 -16 -20z"/>
<path d="M780 8079 c-11 -8 -9 -9 10 -3 23 6 24 6 10 -12 -14 -17 -13 -18 1
-7 9 7 18 11 21 8 3 -3 11 1 18 10 8 10 9 15 1 15 -6 0 -11 -5 -11 -12 0 -9
-3 -9 -12 0 -15 15 -19 15 -38 1z"/>
<path d="M605 8000 c-3 -5 -1 -10 4 -10 6 0 11 5 11 10 0 6 -2 10 -4 10 -3 0
-8 -4 -11 -10z"/>
<path d="M536 7394 c-8 -20 -8 -24 2 -24 4 0 8 9 9 20 2 24 -3 26 -11 4z"/>
<path d="M536 6914 c-8 -20 -8 -24 2 -24 4 0 8 9 9 20 2 24 -3 26 -11 4z"/>
<path d="M536 6434 c-8 -20 -8 -24 2 -24 4 0 8 9 9 20 2 24 -3 26 -11 4z"/>
<path d="M536 5474 c-8 -20 -8 -24 2 -24 4 0 8 9 9 20 2 24 -3 26 -11 4z"/>
<path d="M536 4994 c-8 -20 -8 -24 2 -24 4 0 8 9 9 20 2 24 -3 26 -11 4z"/>
<path d="M536 4514 c-8 -20 -8 -24 2 -24 4 0 8 9 9 20 2 24 -3 26 -11 4z"/>
<path d="M536 3554 c-8 -20 -8 -24 2 -24 4 0 8 9 9 20 2 24 -3 26 -11 4z"/>
<path d="M536 3074 c-8 -20 -8 -24 2 -24 4 0 8 9 9 20 2 24 -3 26 -11 4z"/>
<path d="M536 2594 c-8 -20 -8 -24 2 -24 4 0 8 9 9 20 2 24 -3 26 -11 4z"/>
<path d="M573 2335 c0 -8 4 -12 9 -9 5 3 6 10 3 15 -9 13 -12 11 -12 -6z"/>
<path d="M9715 2320 c-3 -5 -1 -10 4 -10 6 0 11 5 11 10 0 6 -2 10 -4 10 -3 0
-8 -4 -11 -10z"/>
<path d="M801 2234 c0 -11 3 -14 6 -6 3 7 2 16 -1 19 -3 4 -6 -2 -5 -13z"/>
<path d="M9499 2248 c-5 -18 -6 -38 -1 -34 7 8 12 36 6 36 -2 0 -4 -1 -5 -2z"/>
<path d="M943 2165 c0 -8 4 -12 9 -9 5 3 6 10 3 15 -9 13 -12 11 -12 -6z"/>
<path d="M9286 2141 c-4 -5 -2 -12 3 -15 5 -4 12 -2 15 3 4 5 2 12 -3 15 -5 4
-12 2 -15 -3z"/>
<path d="M8895 1950 c-3 -5 -1 -10 4 -10 6 0 11 5 11 10 0 6 -2 10 -4 10 -3 0
-8 -4 -11 -10z"/>
<path d="M8845 1911 c-3 -6 -13 -7 -22 -4 -11 4 -14 3 -9 -5 4 -7 16 -10 26
-9 25 4 34 13 21 21 -5 4 -12 2 -16 -3z"/>
<path d="M1773 1765 c0 -8 4 -12 9 -9 5 3 6 10 3 15 -9 13 -12 11 -12 -6z"/>
<path d="M8497 1753 c-4 -3 -7 -11 -7 -17 0 -6 5 -5 12 2 6 6 9 14 7 17 -3 3
-9 2 -12 -2z"/>
<path d="M1973 1635 c0 -8 4 -12 9 -9 5 3 6 10 3 15 -9 13 -12 11 -12 -6z"/>
<path d="M8236 1621 c-4 -5 -2 -12 3 -15 5 -4 12 -2 15 3 4 5 2 12 -3 15 -5 4
-12 2 -15 -3z"/>
<path d="M8056 1493 c-6 -14 -5 -15 5 -6 7 7 10 15 7 18 -3 3 -9 -2 -12 -12z"/>
<path d="M2671 1306 c2 -1 17 -10 32 -20 27 -16 27 -16 16 1 -6 11 -20 20 -31
20 -11 1 -19 1 -17 -1z"/>
<path d="M2755 1270 c-3 -6 1 -7 9 -4 18 7 21 14 7 14 -6 0 -13 -4 -16 -10z"/>
<path d="M6975 1000 c-3 -5 -1 -10 4 -10 6 0 11 5 11 10 0 6 -2 10 -4 10 -3 0
-8 -4 -11 -10z"/>
<path d="M3680 810 c-9 -6 -10 -10 -3 -10 6 0 15 5 18 10 8 12 4 12 -15 0z"/>
<path d="M3714 800 c0 -13 4 -16 10 -10 7 7 7 13 0 20 -6 6 -10 3 -10 -10z"/>
<path d="M6590 805 c0 -8 4 -15 10 -15 5 0 7 7 4 15 -4 8 -8 15 -10 15 -2 0
-4 -7 -4 -15z"/>
<path d="M3795 760 c-3 -5 -1 -10 4 -10 6 0 11 5 11 10 0 6 -2 10 -4 10 -3 0
-8 -4 -11 -10z"/>
<path d="M3825 751 c-3 -5 0 -13 6 -17 7 -4 9 -3 5 4 -3 5 0 13 6 15 9 4 10 6
1 6 -6 1 -14 -3 -18 -8z"/>
<path d="M6425 730 c-4 -6 -10 -8 -15 -5 -4 3 -13 -2 -19 -9 -9 -11 -9 -16 -1
-21 7 -4 19 3 27 15 12 17 17 19 24 9 7 -11 9 -10 9 4 0 19 -15 23 -25 7z"/>
<path d="M6275 640 c3 -5 8 -10 11 -10 2 0 4 5 4 10 0 6 -5 10 -11 10 -5 0 -7
-4 -4 -10z"/>
<path d="M4147 599 c3 -10 9 -16 14 -13 13 8 11 21 -5 27 -10 4 -12 0 -9 -14z"/>
<path d="M4260 535 c-7 -9 -11 -17 -9 -20 3 -2 10 5 17 15 14 24 10 26 -8 5z"/>
<path d="M5943 482 c1 -14 5 -18 11 -12 7 7 6 14 -1 21 -9 9 -12 7 -10 -9z"/>
<path d="M4651 343 c-1 -17 16 -25 25 -12 4 7 3 9 -4 5 -5 -3 -13 0 -15 6 -4
9 -6 10 -6 1z"/>
<path d="M5595 320 c3 -5 8 -10 11 -10 2 0 4 5 4 10 0 6 -5 10 -11 10 -5 0 -7
-4 -4 -10z"/>
<path d="M5490 274 c0 -1 8 -8 17 -15 9 -8 14 -9 10 -2 -4 6 -1 13 5 16 7 3 3
4 -9 4 -13 -1 -23 -2 -23 -3z"/>
<path d="M5446 233 c-6 -14 -5 -15 5 -6 7 7 10 15 7 18 -3 3 -9 -2 -12 -12z"/>
<path d="M5330 171 c0 -7 -5 -9 -12 -5 -7 5 -8 3 -3 -5 5 -9 10 -10 18 -2 6 6
8 14 4 18 -4 3 -7 1 -7 -6z"/>
</g>
</svg>
